<?xml version="1.0" encoding="utf-8"?>
<!-- Generator: Adobe Illustrator 14.0.0, SVG Export Plug-In . SVG Version: 6.00 Build 43363)  -->
<!DOCTYPE svg PUBLIC "-//W3C//DTD SVG 1.1//EN" "http://www.w3.org/Graphics/SVG/1.1/DTD/svg11.dtd">
<svg version="1.1" id="Layer_1" xmlns="http://www.w3.org/2000/svg" xmlns:xlink="http://www.w3.org/1999/xlink" x="0px" y="0px"
	 width="229.578px" height="309.936px" viewBox="0 0 229.578 309.936" enable-background="new 0 0 229.578 309.936"
	 xml:space="preserve">
<rect x="19.593" y="98.98" fill="#FFFFFF" width="24.613" height="96.193"/>
<rect x="15.74" y="64.321" transform="matrix(0.9063 -0.4226 0.4226 0.9063 -25.8841 55.7132)" fill="#FFFFFF" width="193.944" height="43.827"/>
<rect x="18.89" y="129.7" transform="matrix(0.9962 -0.0872 0.0872 0.9962 -13.5801 10.1394)" fill="#FFFFFF" width="180.865" height="61.769"/>
<g>
	<g>
		<g>
			<path fill="#5F6062" d="M217.467,2.961c-0.131-1.606-1.346-2.382-2.718-1.729L15.259,96.057c-1.374,0.65-2.383,2.484-2.254,4.091
				l3.205,39.618l138.968-96.131c1.098-0.76,2.256-0.098,2.594,1.481l19.339,91.047l31.449,29.307l18.753-8.913
				c1.371-0.651,2.384-2.486,2.253-4.091L217.467,2.961z"/>
		</g>
		<g>
			<g>
				<path fill="#B5121B" d="M173.098,158.077c-0.087-0.349-0.224-0.655-0.413-0.916c-0.189-0.265-0.432-0.466-0.729-0.611
					c-0.304-0.146-0.67-0.218-1.104-0.218c-0.879,0-1.552,0.261-2.036,0.788c-0.478,0.521-0.764,1.221-0.851,2.099h5.268
					C173.232,158.809,173.188,158.431,173.098,158.077z"/>
				<path fill="#B5121B" d="M206.623,62.45c-0.116-1.608-1.333-2.39-2.708-1.743L3.854,154.315c-1.376,0.646-2.399,2.47-2.278,4.077
					l11.189,149.579c0.119,1.606,1.334,2.382,2.712,1.736l200.06-93.605c1.378-0.646,2.396-2.471,2.278-4.078L206.623,62.45z
					 M155.09,158.244c0.279-0.751,0.652-1.368,1.127-1.858c0.475-0.487,1.03-0.854,1.67-1.09c0.643-0.242,1.328-0.363,2.058-0.363
					c0.899,0,1.633,0.115,2.191,0.348c0.564,0.233,0.969,0.453,1.216,0.658l-0.173,2.927c-0.02,0.251-0.1,0.428-0.255,0.534
					c-0.152,0.111-0.332,0.167-0.533,0.167c-0.206,0-0.392-0.064-0.559-0.198c-0.169-0.131-0.252-0.319-0.252-0.565
					c0-0.117,0.021-0.354,0.056-0.714c0.037-0.354,0.071-0.754,0.096-1.192c-0.16-0.067-0.394-0.154-0.707-0.247
					c-0.313-0.097-0.711-0.144-1.191-0.144c-1.021,0-1.819,0.376-2.402,1.127c-0.584,0.748-0.882,1.778-0.882,3.091
					c0,0.699,0.087,1.308,0.245,1.815c0.158,0.51,0.382,0.932,0.667,1.258c0.286,0.326,0.615,0.567,1,0.729
					c0.372,0.162,0.782,0.243,1.22,0.243s0.847-0.051,1.226-0.144s0.72-0.192,1.037-0.304c0.313-0.111,0.589-0.211,0.828-0.307
					c0.242-0.097,0.444-0.141,0.605-0.141c0.198,0,0.369,0.056,0.503,0.175c0.131,0.114,0.191,0.275,0.191,0.477
					c0,0.144-0.052,0.299-0.16,0.447c-0.112,0.155-0.311,0.311-0.603,0.473c-0.391,0.217-0.912,0.422-1.564,0.607
					c-0.646,0.192-1.409,0.286-2.284,0.286c-0.67,0-1.294-0.105-1.88-0.323c-0.584-0.224-1.09-0.553-1.516-1
					c-0.434-0.439-0.772-1.005-1.018-1.691c-0.248-0.686-0.373-1.502-0.373-2.448C154.674,159.874,154.811,158.995,155.09,158.244z
					 M145.057,183.191c-0.088,0.149-0.265,0.311-0.524,0.472c-0.274,0.174-0.659,0.366-1.149,0.577
					c-0.487,0.211-1.063,0.316-1.737,0.316c-0.785,0-1.422-0.174-1.909-0.527c-0.493-0.348-0.735-0.932-0.735-1.744v-7.387H138
					c-0.252,0-0.441-0.081-0.568-0.229c-0.134-0.155-0.199-0.323-0.199-0.497c0-0.154,0.065-0.316,0.199-0.478
					c0.127-0.161,0.316-0.242,0.568-0.242h1.002v-2.731c0-0.278,0.1-0.484,0.285-0.614c0.187-0.131,0.388-0.192,0.59-0.192
					c0.221,0,0.429,0.062,0.627,0.192c0.192,0.13,0.292,0.336,0.292,0.614v2.731h2.774c0.267,0,0.459,0.081,0.584,0.242
					c0.118,0.161,0.186,0.323,0.186,0.478c0,0.174-0.067,0.342-0.186,0.497c-0.125,0.148-0.317,0.229-0.584,0.229h-2.774v6.989
					c0,0.441,0.103,0.733,0.304,0.875c0.205,0.149,0.447,0.224,0.724,0.224c0.308,0,0.593-0.05,0.851-0.13
					c0.264-0.094,0.506-0.187,0.723-0.286l0.615-0.31c0.188-0.101,0.359-0.149,0.521-0.149c0.204,0,0.365,0.063,0.48,0.187
					c0.114,0.123,0.174,0.272,0.174,0.446C145.187,182.888,145.147,183.036,145.057,183.191z M155.91,174.948
					c-0.195,0.111-0.391,0.161-0.577,0.161c-0.292,0-0.573-0.05-0.854-0.161c-0.275-0.105-0.586-0.162-0.915-0.162
					c-0.249,0-0.516,0.063-0.801,0.187c-0.282,0.124-0.565,0.292-0.845,0.503c-0.275,0.211-0.539,0.46-0.794,0.751
					c-0.255,0.292-0.473,0.615-0.646,0.962v5.668h2.011c0.264,0,0.453,0.074,0.581,0.224c0.124,0.155,0.186,0.315,0.186,0.49
					c0,0.192-0.062,0.359-0.186,0.509c-0.128,0.143-0.317,0.217-0.581,0.217h-4.876c-0.245,0-0.438-0.074-0.568-0.217
					c-0.13-0.149-0.192-0.316-0.192-0.509c0-0.175,0.063-0.335,0.192-0.49c0.131-0.149,0.323-0.224,0.568-0.224h1.114v-8.113
					c-0.245,0.031-0.478,0.05-0.708,0.063c-0.223,0.019-0.379,0.024-0.45,0.024c-0.22,0-0.394-0.068-0.53-0.211
					c-0.143-0.137-0.21-0.298-0.21-0.49c0-0.187,0.055-0.354,0.164-0.503c0.108-0.143,0.288-0.229,0.536-0.261l2.93-0.217v2.297
					c0.187-0.311,0.401-0.603,0.634-0.876c0.232-0.279,0.496-0.521,0.797-0.732c0.295-0.211,0.628-0.379,0.984-0.503
					c0.354-0.124,0.751-0.186,1.188-0.186c0.6,0,1.102,0.104,1.518,0.316c0.423,0.211,0.627,0.502,0.627,0.881
					C156.208,174.644,156.109,174.843,155.91,174.948z M169.833,184.023c-0.105,0.148-0.286,0.235-0.534,0.248l-2.93,0.199v-2.583
					c-0.174,0.366-0.397,0.714-0.658,1.043c-0.261,0.322-0.564,0.608-0.906,0.851c-0.338,0.242-0.72,0.429-1.136,0.564
					c-0.416,0.143-0.862,0.211-1.344,0.211c-1.064,0-1.829-0.272-2.282-0.819c-0.465-0.546-0.694-1.396-0.694-2.544v-6.425
					c-0.652,0.037-1.04,0.062-1.154,0.062c-0.221,0-0.398-0.068-0.534-0.211c-0.143-0.137-0.211-0.298-0.211-0.49
					c0-0.174,0.056-0.341,0.168-0.503c0.108-0.161,0.284-0.248,0.53-0.261l2.998-0.155v6.952c0,0.44,0.016,0.825,0.053,1.161
					c0.037,0.335,0.111,0.614,0.229,0.851c0.118,0.235,0.282,0.41,0.49,0.533c0.215,0.124,0.49,0.187,0.845,0.187
					c0.379,0,0.751-0.068,1.126-0.218c0.369-0.143,0.711-0.359,1.027-0.646c0.311-0.285,0.59-0.621,0.829-1.012
					c0.242-0.397,0.428-0.851,0.559-1.359v-4.891c-0.615,0.037-0.996,0.062-1.157,0.062c-0.221,0-0.398-0.068-0.54-0.211
					c-0.137-0.137-0.205-0.298-0.205-0.49c0-0.174,0.056-0.341,0.167-0.503c0.105-0.161,0.286-0.248,0.534-0.261l2.991-0.155v9.664
					c0.178-0.012,0.392-0.03,0.659-0.043c0.261-0.012,0.428-0.024,0.499-0.024c0.221,0,0.4,0.074,0.537,0.211
					c0.14,0.137,0.211,0.304,0.211,0.49S169.942,183.868,169.833,184.023z M167.397,164.955c-0.888-0.926-1.332-2.371-1.332-4.34
					c0-1.005,0.131-1.875,0.392-2.601c0.261-0.729,0.62-1.322,1.073-1.781c0.447-0.46,0.972-0.802,1.57-1.018
					c0.6-0.218,1.229-0.33,1.9-0.33c1.226,0,2.179,0.354,2.864,1.062s1.027,1.694,1.027,2.961c0,0.469-0.109,0.869-0.323,1.205
					c-0.223,0.335-0.586,0.502-1.092,0.502h-5.624c0,0.714,0.08,1.332,0.241,1.856c0.162,0.527,0.386,0.956,0.677,1.291
					c0.292,0.335,0.634,0.587,1.028,0.757c0.394,0.161,0.831,0.249,1.313,0.249c0.497,0,0.946-0.051,1.356-0.155
					c0.406-0.1,0.772-0.218,1.09-0.349c0.322-0.13,0.599-0.247,0.831-0.347c0.232-0.106,0.422-0.155,0.571-0.155
					c0.201,0,0.366,0.056,0.489,0.174c0.124,0.118,0.187,0.279,0.187,0.484c0,0.161-0.056,0.316-0.164,0.478
					s-0.316,0.329-0.624,0.503c-0.335,0.205-0.834,0.409-1.508,0.62c-0.671,0.218-1.456,0.317-2.359,0.317
					C169.479,166.339,168.288,165.879,167.397,164.955z M190.056,184.079c-0.125,0.143-0.323,0.217-0.584,0.217h-2.293
					c-0.252,0-0.438-0.074-0.568-0.217c-0.134-0.149-0.198-0.316-0.198-0.509l-0.021-6.903c0-0.626-0.086-1.116-0.264-1.465
					c-0.175-0.354-0.527-0.527-1.068-0.527c-0.307,0-0.626,0.087-0.949,0.255c-0.329,0.167-0.64,0.397-0.932,0.688
					c-0.291,0.292-0.552,0.64-0.788,1.049c-0.229,0.404-0.406,0.852-0.521,1.335v4.854h1.379c0.256,0,0.453,0.074,0.576,0.224
					c0.124,0.155,0.187,0.315,0.187,0.49c0,0.192-0.063,0.359-0.187,0.509c-0.123,0.143-0.32,0.217-0.576,0.217h-2.321
					c-0.249,0-0.436-0.074-0.565-0.217c-0.131-0.149-0.199-0.316-0.199-0.509v-6.903c0-0.626-0.086-1.116-0.264-1.465
					c-0.177-0.354-0.53-0.527-1.071-0.527c-0.303,0-0.62,0.087-0.949,0.255c-0.325,0.167-0.639,0.397-0.927,0.688
					c-0.296,0.292-0.557,0.64-0.79,1.049c-0.231,0.404-0.406,0.852-0.524,1.335v4.854h1.249c0.264,0,0.453,0.074,0.576,0.224
					c0.124,0.155,0.187,0.315,0.187,0.49c0,0.192-0.063,0.359-0.187,0.509c-0.123,0.143-0.313,0.217-0.576,0.217h-4.135
					c-0.242,0-0.435-0.074-0.565-0.217c-0.13-0.149-0.198-0.316-0.198-0.509c0-0.175,0.068-0.335,0.198-0.49
					c0.131-0.149,0.323-0.224,0.565-0.224h1.117v-8.113c-0.235,0.031-0.469,0.05-0.701,0.063c-0.236,0.019-0.385,0.024-0.46,0.024
					c-0.232,0-0.412-0.068-0.546-0.211c-0.13-0.137-0.195-0.298-0.195-0.49c0-0.187,0.053-0.354,0.165-0.503
					c0.111-0.143,0.284-0.229,0.533-0.261l2.973-0.217l-0.042,2.73c0.362-0.887,0.862-1.577,1.499-2.054
					c0.629-0.484,1.343-0.721,2.129-0.721c0.878,0,1.511,0.254,1.914,0.776c0.397,0.515,0.604,1.179,0.622,1.998
					c0.335-0.906,0.824-1.589,1.461-2.067c0.646-0.471,1.365-0.707,2.165-0.707c0.966,0,1.661,0.254,2.091,0.764
					c0.427,0.509,0.646,1.272,0.646,2.291v6.697h1.352c0.261,0,0.459,0.074,0.584,0.224c0.121,0.155,0.18,0.315,0.18,0.49
					C190.236,183.763,190.177,183.93,190.056,184.079z M190.056,165.86c-0.131,0.144-0.323,0.218-0.584,0.218h-2.293
					c-0.252,0-0.438-0.074-0.568-0.218c-0.134-0.143-0.198-0.31-0.198-0.503v-6.076c0-0.438-0.019-0.829-0.057-1.17
					c-0.033-0.339-0.11-0.631-0.229-0.873c-0.118-0.241-0.279-0.422-0.491-0.546c-0.211-0.124-0.489-0.187-0.841-0.187
					c-0.378,0-0.754,0.075-1.126,0.23c-0.37,0.148-0.711,0.372-1.028,0.658c-0.311,0.281-0.589,0.626-0.829,1.036
					c-0.24,0.406-0.427,0.856-0.558,1.353v4.854h1.266c0.267,0,0.459,0.074,0.578,0.224c0.124,0.154,0.192,0.323,0.192,0.496
					c0,0.193-0.068,0.36-0.192,0.503c-0.119,0.144-0.312,0.218-0.578,0.218h-4.174c-0.245,0-0.438-0.074-0.568-0.218
					c-0.13-0.143-0.195-0.31-0.195-0.503c0-0.173,0.065-0.342,0.195-0.496c0.131-0.149,0.323-0.224,0.568-0.224h1.114v-8.109
					c-0.249,0.027-0.483,0.053-0.708,0.064c-0.229,0.017-0.377,0.022-0.45,0.022c-0.22,0-0.394-0.068-0.536-0.209
					c-0.137-0.136-0.205-0.301-0.205-0.49c0-0.192,0.057-0.359,0.161-0.502c0.111-0.146,0.289-0.235,0.541-0.267l2.991-0.215
					l-0.044,2.666c0.379-0.816,0.903-1.471,1.576-1.968c0.666-0.496,1.484-0.745,2.446-0.745c1.065,0,1.825,0.273,2.284,0.82
					c0.459,0.549,0.689,1.396,0.689,2.551v6.381h1.266c0.261,0,0.453,0.074,0.584,0.224c0.121,0.154,0.18,0.323,0.18,0.496
					C190.236,165.551,190.177,165.718,190.056,165.86z"/>
			</g>
			<path fill="#FFFFFF" d="M131.497,129.293c-0.968-0.493-2.147-0.739-3.541-0.739c-1.015,0-1.94,0.144-2.771,0.431
				c-0.832,0.29-1.599,0.681-2.294,1.173c-0.698,0.49-1.315,1.062-1.859,1.704c-0.543,0.647-1.036,1.327-1.477,2.039v-5.347
				l-6.824,0.508c-0.575,0.068-0.994,0.273-1.247,0.612c-0.256,0.339-0.379,0.731-0.379,1.17c0,0.441,0.16,0.824,0.481,1.146
				c0.323,0.323,0.736,0.482,1.245,0.482c0.171,0,0.518-0.017,1.047-0.05c0.527-0.033,1.078-0.082,1.657-0.151v18.891h-2.598
				c-0.578,0-1.021,0.176-1.322,0.533c-0.307,0.357-0.456,0.739-0.456,1.148c0,0.44,0.149,0.832,0.456,1.171
				c0.301,0.338,0.745,0.505,1.322,0.505h1.809c0.263-0.015,0.519-0.031,0.806-0.055v13.339c-0.722-0.273-1.49-0.516-2.313-0.721
				c-0.82-0.204-1.832-0.31-3.026-0.31c-1.951,0-3.696,0.329-5.234,0.975c-1.543,0.651-2.858,1.595-3.956,2.824
				c-1.096,1.235-1.935,2.737-2.516,4.519c-0.583,1.782-0.874,3.78-0.874,6.003c0,1.129,0.077,2.179,0.219,3.146h4.541
				c-0.224-1.03-0.342-2.21-0.342-3.551c0-1.818,0.204-3.37,0.613-4.674c0.413-1.304,0.967-2.358,1.67-3.185
				c0.703-0.819,1.53-1.428,2.489-1.818c0.959-0.397,2.002-0.59,3.134-0.59c0.988,0,2.006,0.105,3.051,0.329
				c1.045,0.224,1.875,0.472,2.493,0.745v12.743h4.055c0-0.322,0-0.646,0-0.975c0-4.4,0-8.808,0-13.209c0-2.24,0-4.476,0-6.71
				c0-0.093,0-0.187,0-0.286v-5.48c0-0.078,0-0.155,0-0.23c0-0.192,0-0.381,0-0.573c0-0.748,0-1.503,0-2.257h4.735
				c0.611,0,1.062-0.167,1.348-0.505c0.289-0.339,0.435-0.73,0.435-1.171c0-0.409-0.146-0.791-0.435-1.148
				c-0.286-0.357-0.736-0.533-1.348-0.533h-4.686v-13.188c0.409-0.814,0.909-1.563,1.505-2.242c0.593-0.677,1.214-1.264,1.859-1.755
				c0.642-0.49,1.297-0.882,1.955-1.17c0.667-0.292,1.284-0.435,1.858-0.435c0.785,0,1.496,0.126,2.142,0.382
				c0.643,0.255,1.307,0.384,1.983,0.384c0.444,0,0.895-0.129,1.354-0.384c0.459-0.256,0.686-0.721,0.686-1.398
				C132.946,130.473,132.462,129.786,131.497,129.293"/>
			<path fill="#FFFFFF" d="M106.061,152.943c0.71-0.41,1.198-0.795,1.449-1.17c0.255-0.376,0.383-0.748,0.383-1.121
				c0-0.479-0.144-0.851-0.431-1.12c-0.289-0.271-0.674-0.41-1.148-0.41c-0.34,0-0.779,0.121-1.322,0.357
				c-0.542,0.242-1.19,0.512-1.937,0.816c-0.747,0.308-1.594,0.58-2.542,0.816c-0.949,0.236-2.006,0.354-3.159,0.354
				c-1.118,0-2.137-0.192-3.057-0.583c-0.914-0.391-1.713-0.975-2.39-1.76c-0.68-0.776-1.205-1.778-1.582-3.001
				c-0.372-1.223-0.557-2.667-0.557-4.33h13.086c1.188,0,2.035-0.388,2.545-1.17c0.505-0.782,0.763-1.715,0.763-2.801
				c0-2.953-0.797-5.251-2.395-6.9c-1.597-1.646-3.817-2.469-6.668-2.469c-1.561,0-3.042,0.254-4.432,0.764
				c-1.391,0.509-2.615,1.299-3.668,2.368c-1.05,1.068-1.882,2.453-2.491,4.148c-0.611,1.699-0.918,3.718-0.918,6.059
				c0,4.584,1.037,7.952,3.106,10.109c2.07,2.154,4.856,3.234,8.353,3.234c2.103,0,3.938-0.249,5.497-0.739
				C104.109,153.902,105.279,153.421,106.061,152.943 M92.007,133.646c1.119-1.224,2.697-1.834,4.735-1.834
				c1.018,0,1.876,0.17,2.573,0.509c0.695,0.341,1.266,0.816,1.706,1.428c0.44,0.609,0.762,1.32,0.969,2.136
				c0.202,0.815,0.305,1.7,0.305,2.648H90.024C90.226,136.497,90.884,134.868,92.007,133.646z"/>
			<path fill="#FFFFFF" d="M153.825,119.413c-0.205-0.321-0.537-0.604-0.994-0.84c-0.459-0.237-1.089-0.433-1.884-0.585
				c-0.8-0.151-1.774-0.231-2.927-0.231c-2.784,0-4.903,0.639-6.368,1.91c-1.459,1.272-2.188,3.338-2.188,6.187v3.413h-2.595
				c-0.581,0-1.019,0.186-1.326,0.56c-0.308,0.372-0.459,0.748-0.459,1.12c0,0.409,0.151,0.789,0.459,1.144
				c0.308,0.359,0.745,0.536,1.326,0.536h2.595v18.535h-2.595c-0.581,0-1.019,0.176-1.326,0.533
				c-0.308,0.357-0.459,0.739-0.459,1.148c0,0.44,0.151,0.832,0.459,1.171c0.308,0.338,0.745,0.505,1.326,0.505h11.25
				c0.608,0,1.062-0.167,1.351-0.505c0.289-0.339,0.431-0.73,0.431-1.171c0-0.409-0.142-0.791-0.431-1.148
				c-0.289-0.357-0.742-0.533-1.351-0.533h-4.481v-18.535h5.6c0.614,0,1.061-0.177,1.353-0.536c0.285-0.354,0.432-0.735,0.432-1.144
				c0-0.372-0.146-0.748-0.432-1.12c-0.292-0.375-0.738-0.56-1.353-0.56h-5.6v-3.618c0-1.491,0.279-2.587,0.844-3.282
				c0.559-0.695,1.603-1.046,3.129-1.046c1.223,0,2.191,0.104,2.905,0.309c0.708,0.202,1.354,0.305,1.937,0.305
				c0.503,0,0.912-0.135,1.217-0.407c0.308-0.274,0.459-0.646,0.459-1.122C154.128,120.068,154.023,119.737,153.825,119.413"/>
			<path fill="#FFFFFF" d="M41.59,168.48c0.611-0.491,1.1-1.063,1.472-1.714c0.368-0.658,0.548-1.39,0.548-2.203
				c0-0.94-0.132-1.844-0.396-2.725c-0.267-0.882-0.541-1.667-0.828-2.359c-0.286-0.695-0.622-1.186-1.009-1.471
				c-0.388-0.286-0.807-0.429-1.257-0.429c-0.528,0-1.021,0.174-1.468,0.521c-0.45,0.348-0.673,0.848-0.673,1.499
				c0,0.366,0.059,0.724,0.185,1.071c0.12,0.347,0.262,0.707,0.428,1.073c0.162,0.366,0.306,0.764,0.427,1.191
				c0.123,0.429,0.187,0.892,0.187,1.385c0,0.932-0.514,1.72-1.535,2.353c-1.019,0.633-2.184,1.03-3.489,1.191
				c-1.715-0.813-3.753-1.223-6.126-1.223c-1.836,0-3.5,0.273-4.991,0.826c-1.49,0.552-2.767,1.328-3.829,2.327
				c-1.062,0.999-1.876,2.229-2.447,3.675c-0.571,1.453-0.857,3.073-0.857,4.867c0,4.617,1.632,7.759,4.897,9.435
				c-0.776,0.695-1.45,1.44-2.02,2.234c-0.571,0.801-0.857,1.744-0.857,2.85c0,1.062,0.266,1.961,0.795,2.693
				c-0.489,0.366-1,0.795-1.53,1.285c-0.534,0.491-1.023,1.056-1.468,1.688c-0.453,0.627-0.82,1.322-1.106,2.079
				c-0.284,0.752-0.427,1.564-0.427,2.421c0,1.428,0.324,2.651,0.978,3.675c0.652,1.019,1.564,1.862,2.728,2.539
				c1.162,0.67,2.539,1.173,4.132,1.502c1.592,0.323,3.309,0.484,5.146,0.484c2.162,0,4.235-0.236,6.214-0.701
				c1.98-0.466,3.714-1.167,5.206-2.086c1.488-0.919,2.675-2.048,3.552-3.396c0.875-1.347,1.319-2.898,1.319-4.655
				c0-1.267-0.214-2.359-0.646-3.277c-0.424-0.919-1.01-1.683-1.745-2.291c-0.735-0.614-1.615-1.061-2.633-1.353
				c-1.02-0.286-2.124-0.429-3.309-0.429h-9.734c-1.674,0-2.513-0.546-2.513-1.65c0-0.534,0.095-0.994,0.275-1.379
				c0.184-0.391,0.417-0.788,0.702-1.192c0.493,0.075,1.004,0.144,1.535,0.181c0.528,0.043,1.082,0.063,1.651,0.063
				c1.837,0,3.5-0.267,4.992-0.795c1.49-0.527,2.765-1.31,3.829-2.327c1.059-1.019,1.875-2.26,2.452-3.706
				c0.566-1.452,0.856-3.073,0.856-4.866c0-1.391-0.218-2.707-0.646-3.954c-0.428-1.249-0.93-2.192-1.499-2.85
				c0.857-0.198,1.668-0.479,2.448-0.825C40.283,169.387,40.978,168.971,41.59,168.48 M23.706,197.506h9.37
				c1.962,0,3.381,0.267,4.256,0.801c0.878,0.527,1.319,1.489,1.319,2.88c0,0.856-0.296,1.65-0.887,2.384
				c-0.592,0.738-1.378,1.371-2.359,1.898c-0.981,0.535-2.136,0.944-3.461,1.229c-1.326,0.286-2.727,0.429-4.194,0.429
				c-2.616,0-4.768-0.379-6.459-1.137c-1.696-0.757-2.545-1.992-2.545-3.705c0-0.938,0.266-1.875,0.798-2.818
				c0.527-0.937,1.078-1.694,1.652-2.266C22.093,197.406,22.931,197.506,23.706,197.506z M32.526,183.545
				c-1.267,1.267-2.961,1.9-5.081,1.9c-2.249,0-3.932-0.528-5.056-1.597c-1.123-1.055-1.682-2.916-1.682-5.573
				c0-2.813,0.63-4.854,1.898-6.121c1.263-1.266,2.958-1.898,5.08-1.898c2.248,0,3.929,0.527,5.055,1.595
				c1.123,1.055,1.684,2.918,1.684,5.567C34.424,180.236,33.789,182.285,32.526,183.545z"/>
			<path fill="#FFFFFF" d="M56.474,166.935c-3.831,0-6.834,1.197-9.007,3.594c-2.172,2.396-3.26,5.835-3.26,10.316
				c0,1.292,0.093,2.471,0.261,3.558h4.548c-0.251-1.111-0.396-2.372-0.396-3.812c0-3.353,0.677-5.873,2.026-7.548
				c1.354-1.677,3.175-2.515,5.467-2.515c4.793,0,7.188,3.147,7.188,9.447c0,1.688-0.17,3.166-0.514,4.427h4.449
				c0.318-1.409,0.479-2.968,0.479-4.681c0-4.383-0.959-7.61-2.875-9.684C62.927,167.972,60.136,166.935,56.474,166.935"/>
			<path fill="#FFFFFF" d="M83.63,166.835c-1.575,0-3.064,0.255-4.467,0.77c-1.406,0.516-2.635,1.311-3.698,2.384
				c-1.059,1.08-1.898,2.477-2.515,4.184c-0.616,1.713-0.923,3.75-0.923,6.114c0,1.502,0.126,2.868,0.348,4.116h4.364
				c-0.332-1.18-0.503-2.552-0.503-4.116h13.196c1.196,0,2.051-0.397,2.563-1.186c0.515-0.788,0.773-1.726,0.773-2.824
				c0-2.979-0.809-5.295-2.415-6.952C88.746,167.667,86.505,166.835,83.63,166.835 M76.492,176.996c0.208-2.055,0.874-3.699,2-4.928
				c1.13-1.229,2.724-1.844,4.776-1.844c1.028,0,1.892,0.167,2.592,0.509c0.699,0.341,1.275,0.825,1.718,1.44
				c0.45,0.614,0.773,1.334,0.978,2.153s0.31,1.714,0.31,2.669H76.492z"/>
			<polyline fill="#FFFFFF" points="108.815,220.987 108.815,210.814 109.772,210.814 109.772,220.175 115.232,220.175 
				115.232,220.987 108.815,220.987 			"/>
			<rect x="121.249" y="210.814" fill="#FFFFFF" width="0.962" height="10.173"/>
			<polyline fill="#FFFFFF" points="129.076,220.987 129.076,210.814 135.848,210.814 135.848,211.633 130.035,211.633 
				130.035,215.314 135.277,215.314 135.277,216.128 130.035,216.128 130.035,220.175 135.985,220.175 135.985,220.987 
				129.076,220.987 			"/>
			<polyline fill="#FFFFFF" points="141.91,220.987 141.91,210.814 143.377,210.814 146.711,219.789 146.736,219.789 
				150.016,210.814 151.468,210.814 151.468,220.987 150.51,220.987 150.51,211.919 150.482,211.919 147.151,220.987 
				146.246,220.987 142.893,211.919 142.862,211.919 142.862,220.987 141.91,220.987 			"/>
			<polyline fill="#FFFFFF" points="157.958,220.987 157.958,210.814 164.725,210.814 164.725,211.633 158.92,211.633 
				158.92,215.314 164.16,215.314 164.16,216.128 158.92,216.128 158.92,220.175 164.867,220.175 164.867,220.987 157.958,220.987 
							"/>
			<path fill="#FFFFFF" d="M171.776,216.369v4.618h-0.962v-10.173h3.985c1.136,0,2.001,0.217,2.585,0.639
				c0.58,0.435,0.879,1.111,0.879,2.036c0,0.64-0.131,1.148-0.382,1.526c-0.258,0.373-0.681,0.696-1.271,0.957
				c0.293,0.099,0.521,0.241,0.695,0.434c0.175,0.192,0.305,0.41,0.379,0.658c0.081,0.242,0.137,0.497,0.167,0.758
				c0.029,0.261,0.044,0.564,0.057,0.906c0.02,0.732,0.056,1.253,0.127,1.558c0.065,0.305,0.162,0.497,0.296,0.608v0.093h-1.063
				c-0.111-0.192-0.191-0.478-0.235-0.838c-0.05-0.36-0.086-0.813-0.118-1.358c-0.027-0.603-0.056-0.994-0.099-1.181
				c-0.1-0.49-0.322-0.825-0.665-0.992c-0.335-0.168-0.788-0.249-1.353-0.249H171.776 M174.771,215.55
				c0.767,0,1.368-0.167,1.84-0.503c0.453-0.335,0.684-0.837,0.684-1.514c0-0.379-0.06-0.683-0.195-0.932
				c-0.128-0.248-0.308-0.447-0.534-0.59c-0.227-0.136-0.487-0.235-0.784-0.291c-0.296-0.063-0.612-0.088-0.957-0.088h-3.048v3.917
				H174.771z"/>
			<path fill="#FFFFFF" d="M184.886,217.952c0.074,0.862,0.368,1.502,0.89,1.899c0.519,0.391,1.195,0.584,2.034,0.584
				c0.856,0,1.502-0.193,1.937-0.596c0.434-0.397,0.651-0.9,0.651-1.502c0-0.349-0.075-0.646-0.227-0.895
				c-0.152-0.242-0.351-0.44-0.605-0.59c-0.257-0.149-0.533-0.273-0.838-0.359c-0.299-0.094-0.689-0.193-1.161-0.305
				c-0.552-0.137-1.005-0.261-1.356-0.372c-0.347-0.111-0.673-0.268-0.983-0.466c-0.313-0.199-0.563-0.466-0.752-0.813
				c-0.185-0.342-0.281-0.758-0.281-1.267c0-0.745,0.305-1.396,0.909-1.925c0.607-0.533,1.452-0.801,2.538-0.801
				c1.093,0,1.938,0.279,2.53,0.862c0.592,0.578,0.891,1.298,0.891,2.179h-0.918c0-0.737-0.243-1.29-0.724-1.663
				c-0.479-0.372-1.071-0.553-1.779-0.553c-0.832,0-1.461,0.187-1.881,0.565c-0.421,0.385-0.633,0.845-0.633,1.378
				c0,0.1,0.01,0.192,0.028,0.298c0.05,0.279,0.154,0.516,0.316,0.702c0.164,0.192,0.369,0.354,0.614,0.477
				c0.245,0.131,0.506,0.23,0.776,0.305c0.275,0.074,0.627,0.168,1.058,0.255c0.577,0.124,1.044,0.242,1.389,0.348
				c0.35,0.105,0.685,0.267,1.004,0.466c0.317,0.198,0.575,0.484,0.762,0.825c0.186,0.354,0.278,0.788,0.278,1.304
				c0,0.931-0.322,1.663-0.978,2.179c-0.657,0.521-1.567,0.781-2.734,0.781c-1.104,0-1.991-0.278-2.666-0.844
				c-0.682-0.577-1.021-1.39-1.021-2.458H184.886"/>
			<path fill="#FFFFFF" d="M58.684,204.631l4.003-10.174h1.088l3.899,10.174h-0.993l-1.17-3.196h-4.634l-1.203,3.196H58.684
				 M61.202,200.615h3.984l-1.991-5.339L61.202,200.615z"/>
			<path fill="#FFFFFF" d="M80.5,197.406c-0.184-0.851-0.543-1.459-1.068-1.838c-0.532-0.372-1.245-0.564-2.137-0.564
				c-0.596,0-1.115,0.111-1.561,0.354c-0.445,0.236-0.818,0.564-1.109,0.981c-0.295,0.416-0.508,0.899-0.644,1.439
				c-0.133,0.54-0.205,1.124-0.205,1.732c0,0.602,0.065,1.179,0.183,1.72c0.121,0.539,0.321,1.023,0.601,1.458
				c0.279,0.423,0.651,0.764,1.118,1.012c0.469,0.249,1.032,0.372,1.701,0.372c0.849,0,1.548-0.254,2.1-0.763
				c0.549-0.51,0.923-1.187,1.124-2.03h1.006c-0.126,0.516-0.298,0.993-0.519,1.422c-0.225,0.434-0.511,0.819-0.862,1.147
				c-0.353,0.336-0.783,0.584-1.284,0.771c-0.506,0.187-1.088,0.273-1.746,0.273c-0.757,0-1.416-0.138-1.973-0.416
				c-0.559-0.273-1.018-0.665-1.377-1.161c-0.357-0.484-0.619-1.055-0.784-1.7c-0.165-0.64-0.246-1.329-0.246-2.073
				c0-0.943,0.115-1.757,0.351-2.446c0.234-0.683,0.563-1.248,0.988-1.676c0.424-0.428,0.924-0.739,1.49-0.938
				c0.573-0.198,1.207-0.292,1.903-0.292c1.064,0,1.944,0.273,2.649,0.832c0.703,0.553,1.131,1.354,1.291,2.384H80.5"/>
			<polyline fill="#FFFFFF" points="87.708,204.631 87.708,194.457 88.669,194.457 88.669,198.821 94.682,198.821 94.682,194.457 
				95.648,194.457 95.648,204.631 94.682,204.631 94.682,199.641 88.669,199.641 88.669,204.631 87.708,204.631 			"/>
			<polyline fill="#FFFFFF" points="101.244,194.457 108.646,194.457 108.646,195.276 105.423,195.276 105.423,204.631 
				104.464,204.631 104.464,195.276 101.244,195.276 101.244,194.457 			"/>
			<polyline fill="#FFFFFF" points="114.255,204.631 114.255,194.457 121.022,194.457 121.022,195.276 115.213,195.276 
				115.213,198.945 120.454,198.945 120.454,199.766 115.213,199.766 115.213,203.806 121.167,203.806 121.167,204.631 
				114.255,204.631 			"/>
			<path fill="#FFFFFF" d="M128.077,200.007v4.624h-0.966v-10.174h3.985c1.139,0,2.002,0.212,2.586,0.64
				c0.583,0.423,0.871,1.111,0.871,2.03c0,0.639-0.12,1.148-0.375,1.521c-0.261,0.379-0.68,0.702-1.272,0.969
				c0.289,0.093,0.521,0.229,0.698,0.428c0.171,0.192,0.302,0.41,0.379,0.658c0.083,0.242,0.137,0.497,0.164,0.758
				c0.031,0.254,0.05,0.559,0.057,0.906c0.018,0.731,0.062,1.253,0.13,1.551c0.063,0.305,0.165,0.503,0.295,0.615v0.099h-1.059
				c-0.111-0.198-0.195-0.483-0.242-0.844c-0.05-0.366-0.084-0.819-0.114-1.366c-0.025-0.602-0.06-0.992-0.097-1.173
				c-0.103-0.496-0.326-0.831-0.664-0.999c-0.339-0.161-0.792-0.242-1.356-0.242H128.077 M131.072,199.188
				c0.761,0,1.368-0.167,1.834-0.503c0.46-0.335,0.689-0.837,0.689-1.521c0-0.366-0.063-0.677-0.196-0.919
				c-0.127-0.261-0.311-0.453-0.537-0.59c-0.229-0.143-0.484-0.241-0.782-0.298c-0.298-0.062-0.614-0.081-0.955-0.081h-3.048v3.911
				H131.072z"/>
			<polyline fill="#FFFFFF" points="140.77,204.631 140.77,194.457 141.732,194.457 141.732,198.821 147.748,198.821 
				147.748,194.457 148.716,194.457 148.716,204.631 147.748,204.631 147.748,199.641 141.732,199.641 141.732,204.631 
				140.77,204.631 			"/>
			<path fill="#FFFFFF" d="M155.14,197.449c0.208-0.651,0.512-1.223,0.909-1.713c0.401-0.483,0.9-0.869,1.487-1.143
				c0.589-0.272,1.251-0.403,1.982-0.403c0.773,0,1.462,0.131,2.064,0.403c0.602,0.273,1.104,0.659,1.508,1.143
				c0.41,0.49,0.708,1.062,0.913,1.713c0.205,0.646,0.311,1.354,0.311,2.104c0,0.745-0.105,1.439-0.311,2.086
				c-0.205,0.646-0.5,1.217-0.899,1.701c-0.404,0.49-0.9,0.875-1.496,1.147c-0.603,0.273-1.282,0.404-2.049,0.404
				c-0.764,0-1.44-0.131-2.039-0.404c-0.594-0.272-1.096-0.657-1.486-1.147c-0.397-0.484-0.699-1.056-0.9-1.701
				c-0.202-0.646-0.305-1.341-0.305-2.086C154.83,198.803,154.935,198.095,155.14,197.449 M161.257,203.713
				c0.479-0.236,0.879-0.564,1.186-0.987c0.313-0.416,0.543-0.9,0.689-1.44c0.146-0.539,0.22-1.117,0.22-1.731
				c0-1.415-0.341-2.521-1.018-3.34c-0.683-0.807-1.611-1.21-2.784-1.21c-0.63,0-1.186,0.124-1.663,0.366
				c-0.476,0.248-0.866,0.583-1.18,1.006c-0.308,0.422-0.537,0.912-0.692,1.446c-0.148,0.539-0.223,1.117-0.223,1.731
				s0.074,1.192,0.223,1.731c0.155,0.54,0.385,1.024,0.692,1.447c0.313,0.428,0.708,0.757,1.188,0.993
				c0.479,0.235,1.037,0.347,1.683,0.347C160.218,204.072,160.777,203.961,161.257,203.713z"/>
			<polyline fill="#FFFFFF" points="170.459,204.631 170.459,194.457 177.226,194.457 177.226,195.276 171.419,195.276 
				171.419,198.945 176.658,198.945 176.658,199.766 171.419,199.766 171.419,203.806 177.366,203.806 177.366,204.631 
				170.459,204.631 			"/>
			<polyline fill="#FFFFFF" points="183.384,204.631 183.384,194.457 184.345,194.457 184.345,199.729 189.56,194.457 
				190.645,194.457 186.633,198.511 191.353,204.631 190.18,204.631 185.944,199.101 184.345,200.702 184.345,204.631 
				183.384,204.631 			"/>
		</g>
	</g>
	<g opacity="0.28">
		<path fill="#5F6062" d="M163.209,158.865c-0.015,0.248-0.096,0.425-0.251,0.534c-0.151,0.111-0.332,0.167-0.537,0.167
			s-0.388-0.068-0.555-0.198c-0.169-0.131-0.252-0.323-0.252-0.568c0-0.118,0.019-0.351,0.056-0.711
			c0.037-0.356,0.068-0.757,0.097-1.192c-0.165-0.07-0.395-0.154-0.711-0.25c-0.311-0.097-0.708-0.144-1.192-0.144
			c-1.018,0-1.818,0.376-2.402,1.127c-0.583,0.751-0.878,1.781-0.878,3.091c0,0.702,0.083,1.307,0.245,1.818
			c0.158,0.51,0.379,0.929,0.664,1.255c0.286,0.329,0.618,0.57,1,0.731c0.372,0.162,0.785,0.243,1.223,0.243
			c0.435,0,0.844-0.051,1.223-0.144c0.379-0.096,0.723-0.195,1.037-0.307c0.316-0.108,0.589-0.212,0.832-0.308
			c0.241-0.093,0.439-0.14,0.602-0.14c0.201,0,0.372,0.059,0.503,0.174c0.13,0.115,0.195,0.276,0.195,0.48
			c0,0.144-0.053,0.295-0.165,0.447c-0.108,0.152-0.31,0.311-0.602,0.473c-0.392,0.217-0.912,0.422-1.564,0.607
			c-0.646,0.192-1.406,0.286-2.284,0.286c-0.667,0-1.291-0.105-1.878-0.326c-0.583-0.221-1.089-0.55-1.518-0.997
			c-0.434-0.443-0.77-1.005-1.018-1.694c-0.249-0.683-0.373-1.502-0.373-2.445c0-1.006,0.14-1.881,0.416-2.635
			c0.28-0.751,0.652-1.368,1.13-1.858c0.472-0.487,1.03-0.852,1.67-1.09c0.643-0.239,1.328-0.363,2.054-0.363
			c0.903,0,1.634,0.118,2.195,0.348c0.562,0.236,0.968,0.452,1.213,0.658L163.209,158.865"/>
		<path fill="#5F6062" d="M174.926,158.908c0,0.466-0.109,0.869-0.326,1.205c-0.221,0.332-0.583,0.499-1.093,0.499h-5.62
			c0,0.714,0.08,1.332,0.238,1.859c0.162,0.524,0.385,0.956,0.68,1.291c0.289,0.332,0.631,0.583,1.028,0.754
			c0.391,0.164,0.832,0.252,1.309,0.252c0.497,0,0.951-0.054,1.36-0.155c0.403-0.1,0.77-0.218,1.089-0.352
			c0.323-0.127,0.599-0.244,0.829-0.347c0.235-0.104,0.425-0.152,0.571-0.152c0.204,0,0.366,0.056,0.49,0.174
			c0.124,0.115,0.187,0.276,0.187,0.48c0,0.162-0.057,0.32-0.162,0.481c-0.111,0.161-0.316,0.329-0.624,0.503
			c-0.335,0.205-0.834,0.409-1.508,0.62c-0.671,0.215-1.456,0.317-2.362,0.317c-1.502,0-2.694-0.46-3.581-1.384
			c-0.888-0.926-1.335-2.371-1.335-4.343c0-1.002,0.131-1.872,0.395-2.598c0.261-0.732,0.617-1.325,1.07-1.781
			c0.447-0.46,0.975-0.802,1.57-1.018c0.603-0.221,1.229-0.33,1.902-0.33c1.227,0,2.179,0.354,2.865,1.062
			C174.582,156.652,174.926,157.642,174.926,158.908 M173.266,159.216c0-0.41-0.044-0.785-0.134-1.139
			c-0.087-0.349-0.227-0.659-0.413-0.92c-0.192-0.261-0.435-0.465-0.732-0.607c-0.301-0.149-0.67-0.221-1.104-0.221
			c-0.876,0-1.553,0.264-2.033,0.791c-0.48,0.521-0.767,1.218-0.854,2.096H173.266z"/>
		<path fill="#5F6062" d="M189.504,164.638c0.264,0,0.456,0.074,0.583,0.224c0.125,0.154,0.181,0.323,0.181,0.496
			c0,0.189-0.056,0.357-0.181,0.503c-0.127,0.144-0.319,0.218-0.583,0.218h-2.29c-0.255,0-0.441-0.074-0.571-0.218
			c-0.131-0.146-0.199-0.313-0.199-0.503v-6.076c0-0.441-0.02-0.832-0.053-1.174c-0.035-0.338-0.115-0.627-0.23-0.872
			c-0.12-0.238-0.282-0.419-0.492-0.546c-0.211-0.124-0.488-0.187-0.839-0.187c-0.379,0-0.758,0.078-1.126,0.229
			c-0.369,0.152-0.711,0.373-1.027,0.658c-0.311,0.282-0.59,0.63-0.829,1.04c-0.245,0.403-0.432,0.856-0.563,1.353v4.854h1.271
			c0.264,0,0.456,0.074,0.577,0.224c0.121,0.154,0.189,0.323,0.189,0.496c0,0.189-0.068,0.357-0.189,0.503
			c-0.121,0.144-0.313,0.218-0.577,0.218h-4.174c-0.249,0-0.438-0.074-0.571-0.218c-0.131-0.146-0.192-0.313-0.192-0.503
			c0-0.173,0.062-0.342,0.192-0.496c0.133-0.149,0.322-0.224,0.571-0.224h1.113v-8.113c-0.248,0.031-0.484,0.054-0.71,0.068
			c-0.228,0.013-0.376,0.02-0.447,0.02c-0.22,0-0.397-0.068-0.537-0.206c-0.141-0.139-0.209-0.304-0.209-0.49
			c0-0.192,0.057-0.359,0.165-0.502c0.112-0.149,0.288-0.235,0.537-0.267l2.991-0.218l-0.042,2.666
			c0.382-0.816,0.906-1.468,1.576-1.965c0.664-0.496,1.483-0.745,2.446-0.745c1.066,0,1.824,0.273,2.284,0.82
			c0.459,0.546,0.688,1.396,0.688,2.548v6.384H189.504"/>
		<path fill="#5F6062" d="M140.83,181.888c0,0.441,0.103,0.733,0.304,0.875c0.202,0.149,0.444,0.221,0.723,0.221
			c0.305,0,0.59-0.047,0.852-0.13c0.264-0.091,0.502-0.184,0.72-0.286l0.614-0.307c0.193-0.104,0.36-0.152,0.524-0.152
			c0.205,0,0.363,0.063,0.481,0.187c0.114,0.126,0.174,0.272,0.174,0.446c0,0.146-0.043,0.295-0.131,0.45
			c-0.087,0.149-0.264,0.311-0.524,0.469c-0.276,0.177-0.661,0.369-1.151,0.58c-0.484,0.211-1.061,0.316-1.737,0.316
			c-0.782,0-1.422-0.177-1.906-0.527c-0.493-0.348-0.736-0.932-0.736-1.747v-7.387h-1.001c-0.252,0-0.441-0.078-0.572-0.229
			c-0.13-0.152-0.198-0.32-0.198-0.494c0-0.157,0.068-0.316,0.198-0.48c0.131-0.158,0.32-0.239,0.572-0.239h1.001v-2.731
			c0-0.278,0.097-0.484,0.283-0.614c0.189-0.131,0.391-0.195,0.59-0.195c0.224,0,0.429,0.064,0.627,0.195
			c0.195,0.13,0.295,0.336,0.295,0.614v2.731h2.774c0.264,0,0.456,0.081,0.58,0.239c0.121,0.164,0.187,0.323,0.187,0.48
			c0,0.174-0.065,0.342-0.187,0.494c-0.124,0.151-0.316,0.229-0.58,0.229h-2.774V181.888"/>
		<path fill="#5F6062" d="M152.521,182.854c0.267,0,0.456,0.074,0.584,0.227c0.124,0.151,0.186,0.315,0.186,0.49
			c0,0.192-0.062,0.359-0.186,0.505c-0.128,0.146-0.317,0.221-0.584,0.221h-4.873c-0.248,0-0.44-0.074-0.568-0.221
			c-0.13-0.146-0.195-0.313-0.195-0.505c0-0.175,0.065-0.339,0.195-0.49c0.128-0.152,0.32-0.227,0.568-0.227h1.114v-8.11
			c-0.245,0.028-0.481,0.05-0.711,0.063c-0.224,0.015-0.375,0.024-0.447,0.024c-0.224,0-0.396-0.068-0.533-0.211
			c-0.143-0.137-0.211-0.298-0.211-0.49c0-0.187,0.056-0.357,0.168-0.503c0.108-0.143,0.285-0.229,0.533-0.261l2.93-0.221v2.298
			c0.189-0.308,0.404-0.6,0.637-0.876s0.496-0.521,0.797-0.729c0.296-0.211,0.628-0.382,0.981-0.503
			c0.354-0.124,0.751-0.189,1.191-0.189c0.597,0,1.099,0.105,1.518,0.32c0.42,0.211,0.624,0.502,0.624,0.881
			c0,0.295-0.1,0.494-0.298,0.603c-0.192,0.111-0.388,0.161-0.577,0.161c-0.289,0-0.571-0.05-0.851-0.161
			c-0.278-0.108-0.587-0.165-0.918-0.165c-0.249,0-0.516,0.063-0.799,0.187c-0.281,0.127-0.567,0.295-0.844,0.506
			c-0.275,0.211-0.539,0.46-0.797,0.751c-0.255,0.292-0.473,0.612-0.643,0.962v5.665H152.521"/>
		<path fill="#5F6062" d="M168.125,182.874c0.181-0.015,0.396-0.03,0.659-0.043c0.264-0.015,0.431-0.024,0.502-0.024
			c0.221,0,0.397,0.071,0.534,0.208c0.143,0.14,0.211,0.304,0.211,0.493c0,0.187-0.057,0.36-0.168,0.513
			c-0.105,0.151-0.285,0.235-0.534,0.251l-2.93,0.199v-2.583c-0.173,0.366-0.396,0.714-0.657,1.04
			c-0.261,0.325-0.562,0.611-0.903,0.854c-0.338,0.239-0.724,0.429-1.136,0.564c-0.416,0.143-0.866,0.211-1.344,0.211
			c-1.068,0-1.829-0.272-2.285-0.822c-0.462-0.543-0.691-1.394-0.691-2.545v-6.421c-0.655,0.037-1.04,0.062-1.158,0.062
			c-0.217,0-0.397-0.068-0.533-0.211c-0.143-0.137-0.211-0.298-0.211-0.49c0-0.174,0.056-0.341,0.167-0.503
			c0.111-0.161,0.289-0.248,0.534-0.261l2.998-0.155v6.952c0,0.438,0.016,0.825,0.05,1.161c0.037,0.332,0.114,0.614,0.232,0.851
			c0.118,0.235,0.282,0.41,0.49,0.533c0.215,0.124,0.49,0.187,0.841,0.187c0.382,0,0.754-0.071,1.13-0.221
			c0.366-0.14,0.708-0.36,1.024-0.643c0.311-0.285,0.59-0.621,0.832-1.015c0.242-0.395,0.428-0.848,0.559-1.356v-4.891
			c-0.615,0.037-0.999,0.062-1.16,0.062c-0.218,0-0.398-0.068-0.538-0.211c-0.139-0.137-0.207-0.298-0.207-0.49
			c0-0.174,0.055-0.341,0.167-0.503c0.105-0.161,0.286-0.248,0.534-0.261l2.991-0.155V182.874"/>
		<path fill="#5F6062" d="M189.504,182.854c0.264,0,0.459,0.074,0.583,0.227c0.125,0.151,0.181,0.315,0.181,0.49
			c0,0.192-0.056,0.359-0.181,0.505c-0.124,0.146-0.319,0.221-0.583,0.221h-2.29c-0.252,0-0.441-0.074-0.571-0.221
			c-0.131-0.146-0.199-0.313-0.199-0.505l-0.02-6.906c0-0.623-0.086-1.113-0.264-1.462c-0.173-0.354-0.53-0.527-1.07-0.527
			c-0.305,0-0.624,0.087-0.95,0.255c-0.329,0.167-0.637,0.397-0.931,0.686c-0.292,0.295-0.553,0.643-0.785,1.049
			c-0.233,0.407-0.406,0.854-0.524,1.338v4.852h1.378c0.261,0,0.456,0.074,0.578,0.227c0.124,0.151,0.186,0.315,0.186,0.49
			c0,0.192-0.062,0.359-0.186,0.505c-0.122,0.146-0.317,0.221-0.578,0.221h-2.321c-0.246,0-0.431-0.074-0.564-0.221
			c-0.13-0.146-0.198-0.313-0.198-0.505v-6.906c0-0.623-0.088-1.113-0.263-1.462c-0.176-0.354-0.53-0.527-1.072-0.527
			c-0.302,0-0.619,0.087-0.95,0.255c-0.323,0.167-0.636,0.397-0.925,0.686c-0.294,0.295-0.555,0.643-0.788,1.049
			c-0.236,0.407-0.409,0.854-0.527,1.338v4.852h1.247c0.267,0,0.453,0.074,0.58,0.227c0.122,0.151,0.184,0.315,0.184,0.49
			c0,0.192-0.062,0.359-0.184,0.505c-0.127,0.146-0.313,0.221-0.58,0.221h-4.134c-0.242,0-0.436-0.074-0.565-0.221
			c-0.13-0.146-0.195-0.313-0.195-0.505c0-0.175,0.065-0.339,0.195-0.49c0.13-0.152,0.323-0.227,0.565-0.227h1.117v-8.11
			c-0.236,0.028-0.466,0.05-0.698,0.063c-0.236,0.015-0.388,0.024-0.463,0.024c-0.229,0-0.409-0.068-0.543-0.211
			c-0.133-0.137-0.195-0.298-0.195-0.49c0-0.187,0.05-0.357,0.161-0.503c0.111-0.143,0.285-0.229,0.537-0.261l2.971-0.221
			l-0.041,2.734c0.363-0.887,0.859-1.577,1.499-2.054c0.63-0.484,1.341-0.724,2.129-0.724c0.876,0,1.512,0.257,1.911,0.775
			c0.402,0.516,0.609,1.183,0.622,2.002c0.338-0.906,0.825-1.592,1.465-2.067c0.646-0.471,1.366-0.71,2.166-0.71
			c0.963,0,1.658,0.257,2.086,0.767c0.429,0.509,0.646,1.272,0.646,2.291v6.694H189.504"/>
	</g>
</g>
<rect x="378.829" y="305.553" fill="#FFFFFF" width="1.853" height="0.617"/>
</svg>
