<?xml version="1.0" encoding="utf-8"?>
<!-- Generator: Adobe Illustrator 16.0.0, SVG Export Plug-In . SVG Version: 6.00 Build 0)  -->
<!DOCTYPE svg PUBLIC "-//W3C//DTD SVG 1.1//EN" "http://www.w3.org/Graphics/SVG/1.1/DTD/svg11.dtd">
<svg version="1.1" id="Layer_1" xmlns="http://www.w3.org/2000/svg" xmlns:xlink="http://www.w3.org/1999/xlink" x="0px" y="0px"
	 width="199.262px" height="282.754px" viewBox="0 0 199.262 282.754" enable-background="new 0 0 199.262 282.754"
	 xml:space="preserve">
<g>
	<polygon fill="#AACA47" points="0.465,-0.456 0.465,281.544 199.079,281.544 199.079,-0.456 0.465,-0.456 	"/>
	<path fill="#1D1D1B" d="M85.014,231.933c-0.039,0.012-0.084,0.031-0.135,0.053c-0.05,0.024-0.103,0.051-0.157,0.083
		c-0.054,0.03-0.113,0.069-0.176,0.116l-5.877,4.382l-4.64-4.031c-0.086-0.071-0.161-0.126-0.228-0.17
		c-0.066-0.043-0.126-0.075-0.181-0.098c-0.055-0.025-0.103-0.043-0.146-0.055c-0.043-0.011-0.088-0.016-0.134-0.016
		c-0.055,0-0.103,0.016-0.146,0.05c-0.043,0.037-0.077,0.091-0.105,0.166c-0.027,0.073-0.048,0.177-0.064,0.309
		c-0.016,0.133-0.024,0.3-0.024,0.503c0,0.188,0.007,0.343,0.018,0.467c0.012,0.126,0.031,0.23,0.059,0.316
		c0.028,0.087,0.062,0.157,0.105,0.216c0.043,0.059,0.094,0.111,0.157,0.156l5.352,4.291h-5.362c-0.047,0-0.092,0.015-0.136,0.046
		c-0.043,0.031-0.077,0.085-0.105,0.163c-0.027,0.078-0.048,0.18-0.064,0.305c-0.016,0.124-0.024,0.284-0.024,0.478
		c0,0.188,0.008,0.348,0.024,0.476c0.016,0.127,0.037,0.231,0.064,0.309c0.028,0.076,0.062,0.134,0.105,0.164
		c0.043,0.03,0.088,0.046,0.136,0.046h11.813c0.055,0,0.104-0.016,0.146-0.046c0.042-0.03,0.078-0.088,0.104-0.164
		c0.028-0.077,0.049-0.182,0.064-0.309c0.016-0.128,0.023-0.288,0.023-0.476c0-0.193-0.007-0.354-0.023-0.478
		c-0.016-0.125-0.036-0.227-0.064-0.305c-0.026-0.078-0.062-0.132-0.104-0.163c-0.043-0.031-0.095-0.046-0.158-0.046h-6.181
		l6.181-4.511c0.063-0.041,0.117-0.083,0.165-0.135c0.046-0.051,0.084-0.121,0.111-0.21c0.026-0.09,0.046-0.204,0.058-0.346
		c0.013-0.142,0.017-0.321,0.017-0.537c0-0.195-0.007-0.36-0.023-0.496c-0.016-0.136-0.036-0.243-0.064-0.316
		c-0.026-0.073-0.063-0.126-0.11-0.156c-0.047-0.032-0.098-0.05-0.153-0.05C85.093,231.915,85.053,231.922,85.014,231.933
		L85.014,231.933z M73.329,219.341c-0.047,0-0.092,0.015-0.136,0.042c-0.043,0.027-0.077,0.077-0.105,0.152
		c-0.027,0.075-0.048,0.173-0.064,0.292c-0.016,0.121-0.024,0.294-0.024,0.52c0,0.188,0.008,0.343,0.024,0.469
		c0.016,0.124,0.037,0.222,0.064,0.298c0.028,0.074,0.062,0.126,0.105,0.156c0.043,0.033,0.088,0.047,0.136,0.047h7.279
		c0.686,0,1.221,0.066,1.607,0.192c0.385,0.13,0.71,0.327,0.975,0.591c0.265,0.266,0.463,0.58,0.596,0.948
		c0.133,0.365,0.199,0.771,0.199,1.214c0,0.445-0.065,0.852-0.199,1.221c-0.132,0.37-0.331,0.689-0.596,0.96
		c-0.265,0.268-0.593,0.47-0.987,0.606c-0.394,0.136-0.969,0.205-1.724,0.205h-7.151c-0.047,0-0.092,0.017-0.136,0.046
		c-0.043,0.032-0.077,0.084-0.105,0.159c-0.027,0.072-0.048,0.173-0.064,0.304c-0.016,0.129-0.024,0.292-0.024,0.496
		c0,0.188,0.008,0.343,0.024,0.469c0.016,0.123,0.037,0.226,0.064,0.302c0.028,0.079,0.062,0.133,0.105,0.164
		c0.043,0.031,0.088,0.047,0.136,0.047h7.291c0.989,0,1.774-0.112,2.354-0.338c0.581-0.226,1.068-0.556,1.46-0.988
		c0.394-0.433,0.69-0.954,0.888-1.56c0.199-0.608,0.299-1.283,0.299-2.022c0-0.764-0.11-1.453-0.328-2.068
		c-0.218-0.614-0.532-1.137-0.941-1.567c-0.409-0.427-0.907-0.76-1.496-0.996c-0.588-0.24-1.333-0.359-2.238-0.359H73.329
		L73.329,219.341z M73.375,205.225c-0.062,0-0.116,0.014-0.164,0.037c-0.047,0.021-0.085,0.067-0.117,0.135
		c-0.031,0.066-0.054,0.154-0.07,0.268s-0.024,0.263-0.024,0.45c0,0.179,0.008,0.323,0.024,0.433s0.039,0.197,0.07,0.269
		c0.032,0.07,0.07,0.117,0.117,0.142c0.047,0.021,0.101,0.033,0.164,0.033h5.854c0.311,0,0.636-0.001,0.97-0.006
		c0.335-0.004,0.668-0.007,1-0.011s0.662-0.009,0.994-0.013c0.33-0.003,0.652-0.009,0.964-0.017v0.023
		c-0.639,0.32-1.273,0.646-1.9,0.976c-0.627,0.331-1.256,0.665-1.887,1l-5.562,2.968c-0.125,0.062-0.233,0.126-0.328,0.191
		c-0.093,0.067-0.169,0.139-0.227,0.218c-0.059,0.076-0.104,0.168-0.134,0.273c-0.031,0.104-0.048,0.225-0.048,0.356v1.45
		c0,0.186,0.064,0.354,0.188,0.501c0.124,0.149,0.318,0.223,0.583,0.223h11.3c0.055,0,0.104-0.015,0.146-0.04
		c0.042-0.027,0.078-0.076,0.104-0.147c0.028-0.071,0.049-0.161,0.064-0.273c0.016-0.113,0.023-0.263,0.023-0.45
		c0-0.173-0.007-0.312-0.023-0.421c-0.016-0.108-0.036-0.197-0.064-0.263c-0.026-0.066-0.062-0.114-0.104-0.141
		c-0.043-0.026-0.091-0.04-0.146-0.04h-6.754c-0.265,0-0.542,0.002-0.83,0.005c-0.288,0.005-0.578,0.01-0.87,0.017
		c-0.292,0.009-0.582,0.015-0.871,0.019c-0.288,0.004-0.564,0.007-0.83,0.007v-0.013c0.593-0.306,1.188-0.609,1.788-0.917
		c0.6-0.308,1.192-0.617,1.777-0.929l6.112-3.271c0.257-0.127,0.446-0.264,0.566-0.41c0.121-0.148,0.181-0.343,0.181-0.584v-1.345
		c0-0.201-0.062-0.371-0.187-0.501c-0.125-0.133-0.32-0.201-0.585-0.201H73.375L73.375,205.225z M80.667,194.196
		c-0.366,0.172-0.681,0.396-0.947,0.672c-0.264,0.276-0.494,0.59-0.689,0.942c-0.195,0.349-0.369,0.708-0.526,1.073
		c-0.154,0.366-0.31,0.726-0.46,1.075c-0.153,0.351-0.318,0.664-0.497,0.94s-0.39,0.499-0.631,0.671
		c-0.241,0.173-0.529,0.257-0.865,0.257c-0.226,0-0.438-0.044-0.637-0.139c-0.199-0.094-0.37-0.226-0.514-0.396
		c-0.143-0.172-0.257-0.383-0.339-0.631c-0.082-0.249-0.123-0.526-0.123-0.83c0-0.397,0.051-0.757,0.152-1.076
		c0.102-0.318,0.209-0.598,0.321-0.834c0.113-0.239,0.221-0.438,0.321-0.598c0.102-0.158,0.153-0.273,0.153-0.343
		c0-0.056-0.015-0.102-0.047-0.135c-0.03-0.035-0.08-0.067-0.146-0.095c-0.067-0.026-0.15-0.045-0.252-0.053
		c-0.101-0.006-0.225-0.013-0.374-0.013c-0.125,0-0.234,0.007-0.327,0.013c-0.093,0.008-0.173,0.021-0.24,0.042
		c-0.066,0.019-0.12,0.042-0.164,0.07c-0.043,0.027-0.093,0.067-0.152,0.122c-0.058,0.055-0.136,0.177-0.233,0.367
		c-0.097,0.192-0.189,0.416-0.274,0.68c-0.086,0.261-0.159,0.551-0.222,0.869c-0.062,0.319-0.093,0.643-0.093,0.971
		c0,0.559,0.08,1.082,0.239,1.566c0.161,0.484,0.384,0.902,0.672,1.262c0.289,0.358,0.638,0.639,1.047,0.84
		c0.409,0.205,0.863,0.304,1.361,0.304c0.507,0,0.949-0.079,1.327-0.244c0.377-0.164,0.701-0.384,0.97-0.659
		c0.269-0.278,0.503-0.592,0.702-0.942c0.198-0.351,0.379-0.706,0.542-1.069c0.164-0.361,0.318-0.719,0.462-1.069
		c0.144-0.35,0.309-0.663,0.491-0.934c0.183-0.272,0.393-0.491,0.631-0.66c0.238-0.168,0.516-0.252,0.834-0.252
		c0.297,0,0.56,0.06,0.789,0.18c0.231,0.122,0.426,0.29,0.585,0.504c0.159,0.216,0.282,0.471,0.368,0.767
		c0.086,0.294,0.128,0.618,0.128,0.967c0,0.47-0.056,0.893-0.169,1.271c-0.113,0.377-0.237,0.703-0.374,0.975
		c-0.137,0.273-0.261,0.496-0.373,0.672c-0.114,0.176-0.17,0.306-0.17,0.392c0,0.063,0.017,0.115,0.052,0.159
		c0.035,0.042,0.092,0.077,0.169,0.104c0.079,0.025,0.174,0.045,0.287,0.054c0.113,0.007,0.248,0.011,0.403,0.011
		c0.125,0,0.229-0.004,0.31-0.011c0.082-0.009,0.153-0.023,0.216-0.043c0.062-0.019,0.115-0.042,0.158-0.069
		c0.043-0.028,0.096-0.072,0.158-0.135c0.062-0.062,0.147-0.196,0.256-0.404c0.109-0.205,0.216-0.456,0.322-0.753
		c0.105-0.294,0.193-0.628,0.263-1c0.069-0.368,0.106-0.752,0.106-1.15c0-0.646-0.087-1.244-0.258-1.798
		c-0.171-0.554-0.411-1.029-0.718-1.427c-0.309-0.396-0.688-0.712-1.139-0.94c-0.453-0.23-0.966-0.346-1.544-0.346
		C81.466,193.938,81.034,194.025,80.667,194.196L80.667,194.196z M73.51,183.036c-0.105,0.016-0.191,0.038-0.257,0.065
		c-0.066,0.026-0.114,0.062-0.14,0.103c-0.027,0.045-0.042,0.095-0.042,0.147v8.695c0,0.054,0.015,0.104,0.042,0.145
		c0.026,0.044,0.074,0.08,0.14,0.112c0.066,0.032,0.151,0.054,0.257,0.064c0.105,0.011,0.229,0.019,0.369,0.019
		c0.14,0,0.262-0.008,0.368-0.019s0.191-0.032,0.256-0.064c0.066-0.032,0.115-0.068,0.146-0.112
		c0.032-0.041,0.047-0.091,0.047-0.145v-3.354h10.447c0.055,0,0.104-0.016,0.146-0.046c0.042-0.031,0.078-0.088,0.104-0.164
		c0.028-0.079,0.049-0.177,0.064-0.298c0.016-0.121,0.023-0.282,0.023-0.485c0-0.195-0.007-0.356-0.023-0.484
		c-0.016-0.129-0.036-0.228-0.064-0.299c-0.026-0.068-0.062-0.122-0.104-0.158c-0.043-0.035-0.091-0.053-0.146-0.053H74.696v-3.354
		c0-0.109-0.063-0.191-0.193-0.25c-0.128-0.059-0.337-0.088-0.624-0.088C73.738,183.013,73.615,183.021,73.51,183.036L73.51,183.036
		z M74.234,171.292c-0.121,0.037-0.218,0.098-0.292,0.174c-0.073,0.079-0.171,0.226-0.292,0.439
		c-0.12,0.215-0.241,0.487-0.362,0.818c-0.121,0.33-0.222,0.718-0.305,1.164c-0.081,0.442-0.122,0.925-0.122,1.447
		c0,0.958,0.154,1.828,0.462,2.611c0.308,0.784,0.742,1.456,1.302,2.017c0.562,0.561,1.243,0.996,2.045,1.303
		c0.802,0.308,1.698,0.462,2.688,0.462c0.95,0,1.811-0.142,2.582-0.426s1.43-0.701,1.975-1.246c0.546-0.544,0.966-1.209,1.262-1.991
		c0.296-0.784,0.445-1.67,0.445-2.658c0-0.321-0.022-0.646-0.065-0.982c-0.042-0.336-0.102-0.667-0.175-0.993
		c-0.073-0.327-0.161-0.646-0.263-0.959c-0.1-0.312-0.221-0.596-0.363-0.854c-0.053-0.132-0.137-0.229-0.25-0.292
		c-0.113-0.061-0.247-0.093-0.403-0.093h-4.826c-0.242,0-0.418,0.062-0.532,0.187c-0.113,0.125-0.17,0.273-0.17,0.445v4.103
		c0,0.053,0.014,0.103,0.042,0.145c0.027,0.043,0.07,0.079,0.128,0.104c0.058,0.029,0.136,0.049,0.234,0.063
		c0.098,0.017,0.216,0.025,0.356,0.025s0.258-0.009,0.356-0.025c0.098-0.015,0.177-0.034,0.24-0.063
		c0.062-0.025,0.107-0.062,0.135-0.104c0.026-0.042,0.04-0.092,0.04-0.145v-2.76h3.343c0.163,0.305,0.288,0.645,0.374,1.022
		c0.085,0.379,0.128,0.747,0.128,1.104c0,0.633-0.104,1.215-0.31,1.749c-0.206,0.532-0.511,0.99-0.911,1.378
		c-0.401,0.385-0.894,0.685-1.479,0.899c-0.584,0.214-1.258,0.322-2.021,0.322c-0.693,0-1.331-0.104-1.911-0.306
		c-0.58-0.204-1.078-0.491-1.49-0.871c-0.413-0.377-0.736-0.836-0.97-1.373c-0.234-0.536-0.351-1.14-0.351-1.811
		c0-0.591,0.058-1.101,0.169-1.524c0.113-0.425,0.242-0.786,0.386-1.08c0.145-0.297,0.273-0.541,0.385-0.731
		c0.113-0.191,0.17-0.345,0.17-0.463c0-0.029-0.015-0.062-0.046-0.098c-0.031-0.035-0.078-0.067-0.14-0.096
		c-0.062-0.024-0.146-0.049-0.251-0.067c-0.105-0.021-0.232-0.03-0.38-0.03C74.544,171.234,74.355,171.254,74.234,171.292
		L74.234,171.292z M84.261,159.911c-0.097,0.015-0.178,0.037-0.24,0.064c-0.062,0.028-0.107,0.062-0.134,0.104
		c-0.027,0.043-0.041,0.087-0.041,0.136v4.942h-4.055v-4.194c0-0.057-0.013-0.104-0.041-0.146c-0.027-0.045-0.072-0.081-0.135-0.112
		c-0.062-0.031-0.142-0.053-0.239-0.063c-0.097-0.013-0.211-0.018-0.345-0.018c-0.147,0-0.272,0.005-0.374,0.018
		c-0.101,0.011-0.183,0.032-0.245,0.063c-0.062,0.031-0.108,0.067-0.134,0.112c-0.027,0.042-0.041,0.089-0.041,0.146v4.194h-3.6
		v-4.86c0-0.056-0.016-0.104-0.047-0.147c-0.031-0.043-0.076-0.077-0.134-0.104c-0.058-0.026-0.137-0.048-0.234-0.063
		c-0.096-0.016-0.215-0.024-0.356-0.024c-0.14,0-0.263,0.009-0.368,0.024c-0.104,0.016-0.188,0.037-0.25,0.063
		c-0.062,0.027-0.108,0.062-0.134,0.104c-0.027,0.044-0.042,0.092-0.042,0.147v6.192c0,0.155,0.058,0.304,0.17,0.444
		c0.114,0.14,0.298,0.211,0.555,0.211h10.891c0.257,0,0.442-0.071,0.556-0.211c0.113-0.141,0.169-0.289,0.169-0.444v-6.274
		c0-0.049-0.013-0.093-0.041-0.136c-0.027-0.042-0.073-0.076-0.14-0.104c-0.067-0.027-0.15-0.05-0.251-0.064
		c-0.102-0.017-0.223-0.023-0.362-0.023C84.477,159.887,84.358,159.894,84.261,159.911L84.261,159.911z M80.667,149.663
		c-0.366,0.173-0.681,0.396-0.947,0.672c-0.264,0.278-0.494,0.59-0.689,0.941c-0.195,0.352-0.369,0.709-0.526,1.075
		c-0.154,0.365-0.31,0.724-0.46,1.075c-0.153,0.351-0.318,0.665-0.497,0.94c-0.179,0.274-0.39,0.5-0.631,0.671
		c-0.241,0.172-0.529,0.258-0.865,0.258c-0.226,0-0.438-0.047-0.637-0.14c-0.199-0.094-0.37-0.225-0.514-0.398
		c-0.143-0.171-0.257-0.381-0.339-0.632c-0.082-0.247-0.123-0.524-0.123-0.829c0-0.396,0.051-0.755,0.152-1.074
		c0.102-0.319,0.209-0.596,0.321-0.836c0.113-0.238,0.221-0.436,0.321-0.596c0.102-0.159,0.153-0.274,0.153-0.346
		c0-0.054-0.015-0.099-0.047-0.134c-0.03-0.034-0.08-0.065-0.146-0.092c-0.067-0.028-0.15-0.045-0.252-0.053
		c-0.101-0.009-0.225-0.014-0.374-0.014c-0.125,0-0.234,0.005-0.327,0.014c-0.093,0.008-0.173,0.02-0.24,0.041
		c-0.066,0.02-0.12,0.041-0.164,0.069c-0.043,0.026-0.093,0.067-0.152,0.123c-0.058,0.054-0.136,0.176-0.233,0.368
		c-0.097,0.188-0.189,0.417-0.274,0.676c-0.086,0.263-0.159,0.554-0.222,0.872c-0.062,0.32-0.093,0.642-0.093,0.968
		c0,0.562,0.08,1.085,0.239,1.566c0.161,0.484,0.384,0.906,0.672,1.265c0.289,0.356,0.638,0.638,1.047,0.841
		c0.409,0.201,0.863,0.303,1.361,0.303c0.507,0,0.949-0.082,1.327-0.245c0.377-0.163,0.701-0.385,0.97-0.66
		c0.269-0.277,0.503-0.591,0.702-0.941c0.198-0.35,0.379-0.707,0.542-1.067c0.164-0.363,0.318-0.722,0.462-1.069
		c0.144-0.353,0.309-0.664,0.491-0.938c0.183-0.271,0.393-0.491,0.631-0.659c0.238-0.167,0.516-0.251,0.834-0.251
		c0.297,0,0.56,0.062,0.789,0.182c0.231,0.121,0.426,0.289,0.585,0.502c0.159,0.214,0.282,0.469,0.368,0.767
		c0.086,0.295,0.128,0.618,0.128,0.969c0,0.467-0.056,0.892-0.169,1.269c-0.113,0.377-0.237,0.703-0.374,0.975
		c-0.137,0.273-0.261,0.497-0.373,0.673c-0.114,0.175-0.17,0.305-0.17,0.392c0,0.061,0.017,0.114,0.052,0.155
		c0.035,0.047,0.092,0.08,0.169,0.107c0.079,0.026,0.174,0.044,0.287,0.053c0.113,0.008,0.248,0.011,0.403,0.011
		c0.125,0,0.229-0.003,0.31-0.011c0.082-0.009,0.153-0.022,0.216-0.042c0.062-0.019,0.115-0.041,0.158-0.068
		c0.043-0.029,0.096-0.073,0.158-0.136c0.062-0.062,0.147-0.196,0.256-0.402c0.109-0.207,0.216-0.458,0.322-0.755
		c0.105-0.295,0.193-0.628,0.263-0.997c0.069-0.372,0.106-0.756,0.106-1.152c0-0.646-0.087-1.246-0.258-1.799
		c-0.171-0.556-0.411-1.029-0.718-1.427c-0.309-0.396-0.688-0.711-1.139-0.94c-0.453-0.229-0.966-0.345-1.544-0.345
		C81.466,149.406,81.034,149.492,80.667,149.663L80.667,149.663z M83.226,137.726c-0.109,0.012-0.197,0.028-0.263,0.046
		c-0.067,0.021-0.111,0.046-0.134,0.077c-0.023,0.031-0.036,0.07-0.036,0.117c0,0.102,0.059,0.23,0.176,0.386
		c0.116,0.156,0.244,0.353,0.379,0.59c0.137,0.238,0.263,0.526,0.38,0.865c0.117,0.34,0.175,0.745,0.175,1.221
		c0,0.568-0.1,1.084-0.297,1.547c-0.2,0.465-0.494,0.865-0.883,1.2c-0.389,0.335-0.876,0.592-1.461,0.775
		c-0.584,0.184-1.258,0.274-2.02,0.274c-0.726,0-1.38-0.084-1.964-0.256c-0.584-0.173-1.077-0.415-1.479-0.731
		c-0.401-0.316-0.708-0.696-0.922-1.146c-0.214-0.446-0.321-0.943-0.321-1.49c0-0.497,0.058-0.928,0.175-1.291
		c0.116-0.363,0.246-0.667,0.385-0.912c0.141-0.245,0.272-0.441,0.392-0.59c0.121-0.146,0.181-0.265,0.181-0.35
		c0-0.055-0.016-0.101-0.047-0.14s-0.081-0.072-0.146-0.099c-0.066-0.027-0.15-0.049-0.251-0.064
		c-0.101-0.016-0.222-0.023-0.362-0.023c-0.257,0-0.454,0.019-0.589,0.052c-0.137,0.036-0.256,0.104-0.356,0.205
		c-0.102,0.102-0.217,0.267-0.345,0.496c-0.128,0.23-0.248,0.489-0.356,0.778c-0.109,0.287-0.195,0.601-0.258,0.94
		c-0.062,0.338-0.094,0.691-0.094,1.058c0,0.841,0.146,1.609,0.433,2.308c0.288,0.697,0.709,1.296,1.262,1.794
		c0.553,0.499,1.226,0.887,2.022,1.163c0.794,0.276,1.694,0.414,2.699,0.414c1.013,0,1.911-0.135,2.693-0.408
		c0.783-0.273,1.441-0.656,1.975-1.152c0.534-0.494,0.938-1.087,1.216-1.781c0.275-0.693,0.414-1.461,0.414-2.302
		c0-0.429-0.037-0.824-0.111-1.187c-0.075-0.361-0.166-0.685-0.274-0.97c-0.109-0.283-0.228-0.527-0.357-0.73
		c-0.128-0.202-0.242-0.354-0.344-0.455c-0.101-0.102-0.216-0.168-0.344-0.199c-0.129-0.031-0.306-0.047-0.532-0.047
		C83.471,137.708,83.336,137.714,83.226,137.726L83.226,137.726z M73.34,124.901c-0.055,0-0.103,0.016-0.146,0.046
		c-0.043,0.031-0.077,0.087-0.105,0.169c-0.027,0.082-0.048,0.187-0.064,0.315c-0.016,0.129-0.024,0.291-0.024,0.486
		c0,0.187,0.008,0.343,0.024,0.468s0.037,0.226,0.064,0.303c0.028,0.079,0.062,0.131,0.105,0.158
		c0.043,0.028,0.092,0.042,0.146,0.042h4.826v5.632H73.34c-0.055,0-0.103,0.016-0.146,0.047c-0.043,0.03-0.077,0.086-0.105,0.164
		c-0.027,0.077-0.048,0.179-0.064,0.304c-0.016,0.125-0.024,0.284-0.024,0.479c0,0.187,0.008,0.345,0.024,0.473
		c0.016,0.129,0.037,0.232,0.064,0.311c0.028,0.078,0.062,0.133,0.105,0.164c0.043,0.031,0.092,0.047,0.146,0.047h11.802
		c0.055,0,0.104-0.016,0.146-0.047c0.042-0.031,0.078-0.085,0.104-0.164c0.028-0.078,0.049-0.182,0.064-0.311
		c0.016-0.128,0.023-0.286,0.023-0.473c0-0.194-0.007-0.354-0.023-0.479c-0.016-0.125-0.036-0.227-0.064-0.304
		c-0.026-0.078-0.062-0.133-0.104-0.164c-0.043-0.031-0.091-0.047-0.146-0.047h-5.305v-5.632h5.305c0.055,0,0.104-0.014,0.146-0.042
		c0.042-0.027,0.078-0.079,0.104-0.158c0.028-0.077,0.049-0.178,0.064-0.303c0.016-0.125,0.023-0.281,0.023-0.468
		c0-0.195-0.007-0.357-0.023-0.486c-0.016-0.128-0.036-0.233-0.064-0.315c-0.026-0.082-0.062-0.138-0.104-0.169
		c-0.043-0.031-0.091-0.046-0.146-0.046H73.34L73.34,124.901z M73.329,118.673c-0.047,0-0.092,0.016-0.136,0.047
		c-0.043,0.031-0.077,0.086-0.105,0.164c-0.027,0.079-0.048,0.179-0.064,0.304c-0.016,0.124-0.024,0.285-0.024,0.479
		c0,0.188,0.008,0.343,0.024,0.467c0.016,0.125,0.037,0.227,0.064,0.304c0.028,0.079,0.062,0.134,0.105,0.17
		c0.043,0.034,0.088,0.052,0.136,0.052h11.813c0.055,0,0.104-0.016,0.146-0.047c0.042-0.031,0.078-0.085,0.104-0.164
		c0.028-0.078,0.049-0.18,0.064-0.309c0.016-0.129,0.023-0.286,0.023-0.474c0-0.194-0.007-0.355-0.023-0.479
		c-0.016-0.125-0.036-0.225-0.064-0.304c-0.026-0.078-0.062-0.132-0.104-0.164c-0.043-0.031-0.091-0.047-0.146-0.047H73.329
		L73.329,118.673z M84.261,107.199c-0.097,0.015-0.178,0.036-0.24,0.063c-0.062,0.027-0.107,0.063-0.134,0.105
		c-0.027,0.042-0.041,0.087-0.041,0.134v4.942h-4.055v-4.195c0-0.053-0.013-0.102-0.041-0.146c-0.027-0.042-0.072-0.08-0.135-0.11
		c-0.062-0.032-0.142-0.053-0.239-0.064s-0.211-0.018-0.345-0.018c-0.147,0-0.272,0.006-0.374,0.018
		c-0.101,0.012-0.183,0.032-0.245,0.064c-0.062,0.031-0.108,0.068-0.134,0.11c-0.027,0.044-0.041,0.092-0.041,0.146v4.195h-3.6
		v-4.86c0-0.055-0.016-0.104-0.047-0.147c-0.031-0.042-0.076-0.078-0.134-0.105c-0.058-0.026-0.137-0.048-0.234-0.063
		c-0.096-0.016-0.215-0.023-0.356-0.023c-0.14,0-0.263,0.008-0.368,0.023c-0.104,0.015-0.188,0.038-0.25,0.063
		c-0.062,0.028-0.108,0.063-0.134,0.105c-0.027,0.043-0.042,0.092-0.042,0.147v6.192c0,0.157,0.058,0.305,0.17,0.445
		c0.114,0.14,0.298,0.21,0.555,0.21h10.891c0.257,0,0.442-0.071,0.556-0.21c0.113-0.14,0.169-0.288,0.169-0.445v-6.274
		c0-0.047-0.013-0.092-0.041-0.134c-0.027-0.042-0.073-0.078-0.14-0.105c-0.067-0.028-0.15-0.048-0.251-0.063
		c-0.102-0.016-0.223-0.023-0.362-0.023C84.477,107.175,84.358,107.183,84.261,107.199L84.261,107.199z M76.536,93.842
		c-0.744,0.265-1.373,0.652-1.887,1.162c-0.514,0.511-0.905,1.142-1.174,1.894c-0.269,0.751-0.404,1.666-0.404,2.74v3.19
		c0,0.157,0.058,0.304,0.17,0.444c0.114,0.14,0.298,0.211,0.555,0.211h10.891c0.257,0,0.442-0.072,0.556-0.211
		c0.113-0.14,0.169-0.287,0.169-0.444v-2.933c0-1.1-0.126-2.038-0.38-2.817c-0.252-0.779-0.64-1.437-1.162-1.974
		c-0.522-0.538-1.18-0.949-1.976-1.233c-0.794-0.285-1.737-0.427-2.827-0.427C78.123,93.444,77.281,93.578,76.536,93.842
		L76.536,93.842z M81.199,95.758c0.588,0.172,1.079,0.43,1.472,0.777c0.394,0.346,0.686,0.78,0.877,1.302
		c0.19,0.522,0.285,1.18,0.285,1.975v1.683h-9.185v-1.693c0-0.842,0.113-1.525,0.339-2.052c0.226-0.526,0.54-0.954,0.941-1.286
		c0.401-0.331,0.875-0.574,1.42-0.73c0.545-0.156,1.138-0.234,1.776-0.234C79.919,95.5,80.611,95.587,81.199,95.758L81.199,95.758z
		 M84.261,82.623c-0.097,0.017-0.178,0.038-0.24,0.065c-0.062,0.027-0.107,0.062-0.134,0.105c-0.027,0.042-0.041,0.088-0.041,0.135
		v4.943h-4.055v-4.196c0-0.055-0.013-0.104-0.041-0.146c-0.027-0.042-0.072-0.08-0.135-0.11c-0.062-0.032-0.142-0.053-0.239-0.064
		c-0.097-0.012-0.211-0.018-0.345-0.018c-0.147,0-0.272,0.006-0.374,0.018c-0.101,0.011-0.183,0.033-0.245,0.064
		c-0.062,0.03-0.108,0.068-0.134,0.11c-0.027,0.042-0.041,0.091-0.041,0.146v4.196h-3.6v-4.862c0-0.055-0.016-0.103-0.047-0.146
		c-0.031-0.044-0.076-0.078-0.134-0.106c-0.058-0.027-0.137-0.048-0.234-0.064c-0.096-0.015-0.215-0.023-0.356-0.023
		c-0.14,0-0.263,0.008-0.368,0.023c-0.104,0.016-0.188,0.038-0.25,0.064c-0.062,0.028-0.108,0.062-0.134,0.106
		c-0.027,0.042-0.042,0.091-0.042,0.146v6.194c0,0.156,0.058,0.303,0.17,0.444c0.114,0.141,0.298,0.21,0.555,0.21h10.891
		c0.257,0,0.442-0.07,0.556-0.21c0.113-0.141,0.169-0.288,0.169-0.444v-6.275c0-0.047-0.013-0.092-0.041-0.135
		c-0.027-0.043-0.073-0.078-0.14-0.105s-0.15-0.048-0.251-0.065c-0.102-0.015-0.223-0.023-0.362-0.023
		C84.477,82.6,84.358,82.608,84.261,82.623L84.261,82.623z M73.375,69.01c-0.062,0-0.116,0.012-0.164,0.035
		c-0.047,0.023-0.085,0.069-0.117,0.135c-0.031,0.066-0.054,0.156-0.07,0.27c-0.016,0.113-0.024,0.262-0.024,0.449
		c0,0.179,0.008,0.323,0.024,0.432s0.039,0.199,0.07,0.27c0.032,0.07,0.07,0.117,0.117,0.14c0.047,0.024,0.101,0.035,0.164,0.035
		h5.854c0.311,0,0.636-0.002,0.97-0.006c0.335-0.004,0.668-0.007,1-0.011s0.662-0.008,0.994-0.012
		c0.33-0.004,0.652-0.01,0.964-0.018v0.023c-0.639,0.32-1.273,0.645-1.9,0.977c-0.627,0.331-1.256,0.664-1.887,0.999l-5.562,2.968
		c-0.125,0.062-0.233,0.126-0.328,0.193c-0.093,0.065-0.169,0.138-0.227,0.216c-0.059,0.079-0.104,0.169-0.134,0.274
		c-0.031,0.106-0.048,0.225-0.048,0.356v1.449c0,0.187,0.064,0.356,0.188,0.503c0.124,0.148,0.318,0.222,0.583,0.222h11.3
		c0.055,0,0.104-0.014,0.146-0.041c0.042-0.028,0.078-0.076,0.104-0.147c0.028-0.069,0.049-0.161,0.064-0.273
		c0.016-0.113,0.023-0.264,0.023-0.45c0-0.171-0.007-0.312-0.023-0.42c-0.016-0.109-0.036-0.197-0.064-0.264
		c-0.026-0.065-0.062-0.113-0.104-0.14c-0.043-0.027-0.091-0.041-0.146-0.041h-6.754c-0.265,0-0.542,0.002-0.83,0.006
		c-0.288,0.003-0.578,0.009-0.87,0.018c-0.292,0.008-0.582,0.014-0.871,0.017c-0.288,0.004-0.564,0.006-0.83,0.006v-0.011
		c0.593-0.304,1.188-0.61,1.788-0.917c0.6-0.308,1.192-0.618,1.777-0.93l6.112-3.271c0.257-0.125,0.446-0.261,0.566-0.409
		c0.121-0.148,0.181-0.342,0.181-0.584v-1.344c0-0.203-0.062-0.37-0.187-0.502c-0.125-0.132-0.32-0.199-0.585-0.199H73.375
		L73.375,69.01z M73.329,62.782c-0.047,0-0.092,0.016-0.136,0.047c-0.043,0.031-0.077,0.086-0.105,0.163
		c-0.027,0.078-0.048,0.18-0.064,0.305c-0.016,0.124-0.024,0.284-0.024,0.478c0,0.188,0.008,0.344,0.024,0.468
		s0.037,0.226,0.064,0.304c0.028,0.079,0.062,0.134,0.105,0.169c0.043,0.036,0.088,0.053,0.136,0.053h11.813
		c0.055,0,0.104-0.015,0.146-0.046c0.042-0.031,0.078-0.085,0.104-0.164c0.028-0.078,0.049-0.181,0.064-0.31
		c0.016-0.128,0.023-0.286,0.023-0.474c0-0.194-0.007-0.354-0.023-0.478c-0.016-0.125-0.036-0.227-0.064-0.305
		c-0.026-0.077-0.062-0.132-0.104-0.163c-0.043-0.031-0.091-0.047-0.146-0.047H73.329L73.329,62.782z M80.667,51.751
		c-0.366,0.171-0.681,0.395-0.947,0.672c-0.264,0.276-0.494,0.589-0.689,0.94c-0.195,0.351-0.369,0.709-0.526,1.076
		c-0.154,0.365-0.31,0.724-0.46,1.074c-0.153,0.351-0.318,0.665-0.497,0.941c-0.179,0.276-0.39,0.5-0.631,0.672
		c-0.241,0.171-0.529,0.257-0.865,0.257c-0.226,0-0.438-0.047-0.637-0.141c-0.199-0.094-0.37-0.226-0.514-0.397
		c-0.143-0.171-0.257-0.382-0.339-0.63c-0.082-0.25-0.123-0.527-0.123-0.83c0-0.398,0.051-0.756,0.152-1.075
		c0.102-0.32,0.209-0.598,0.321-0.835c0.113-0.238,0.221-0.437,0.321-0.596c0.102-0.16,0.153-0.275,0.153-0.345
		c0-0.054-0.015-0.099-0.047-0.135c-0.03-0.034-0.08-0.066-0.146-0.092c-0.067-0.028-0.15-0.045-0.252-0.053
		c-0.101-0.008-0.225-0.012-0.374-0.012c-0.125,0-0.234,0.003-0.327,0.012c-0.093,0.007-0.173,0.021-0.24,0.041
		c-0.066,0.02-0.12,0.042-0.164,0.071c-0.043,0.026-0.093,0.067-0.152,0.122c-0.058,0.055-0.136,0.177-0.233,0.369
		c-0.097,0.19-0.189,0.417-0.274,0.679c-0.086,0.26-0.159,0.551-0.222,0.869c-0.062,0.32-0.093,0.644-0.093,0.97
		c0,0.562,0.08,1.083,0.239,1.565c0.161,0.483,0.384,0.904,0.672,1.263c0.289,0.357,0.638,0.638,1.047,0.841
		c0.409,0.204,0.863,0.303,1.361,0.303c0.507,0,0.949-0.081,1.327-0.244c0.377-0.165,0.701-0.384,0.97-0.661
		c0.269-0.276,0.503-0.59,0.702-0.94c0.198-0.351,0.379-0.707,0.542-1.069c0.164-0.361,0.318-0.719,0.462-1.07
		c0.144-0.351,0.309-0.661,0.491-0.934c0.183-0.272,0.393-0.492,0.631-0.66c0.238-0.167,0.516-0.251,0.834-0.251
		c0.297,0,0.56,0.06,0.789,0.181c0.231,0.121,0.426,0.289,0.585,0.502c0.159,0.214,0.282,0.469,0.368,0.765
		c0.086,0.297,0.128,0.62,0.128,0.971c0,0.467-0.056,0.89-0.169,1.268c-0.113,0.378-0.237,0.704-0.374,0.975
		c-0.137,0.272-0.261,0.497-0.373,0.673c-0.114,0.175-0.17,0.305-0.17,0.392c0,0.062,0.017,0.114,0.052,0.156
		c0.035,0.043,0.092,0.078,0.169,0.105c0.079,0.029,0.174,0.045,0.287,0.054c0.113,0.007,0.248,0.011,0.403,0.011
		c0.125,0,0.229-0.004,0.31-0.011c0.082-0.008,0.153-0.021,0.216-0.042c0.062-0.02,0.115-0.042,0.158-0.07
		c0.043-0.027,0.096-0.072,0.158-0.134c0.062-0.063,0.147-0.197,0.256-0.403c0.109-0.207,0.216-0.459,0.322-0.754
		c0.105-0.296,0.193-0.629,0.263-1c0.069-0.369,0.106-0.753,0.106-1.151c0-0.646-0.087-1.246-0.258-1.798
		c-0.171-0.555-0.411-1.029-0.718-1.427c-0.309-0.397-0.688-0.71-1.139-0.941c-0.453-0.229-0.966-0.345-1.544-0.345
		C81.466,51.493,81.034,51.58,80.667,51.751L80.667,51.751z"/>
	<path fill="#1D1D1B" d="M54.631,238.671c-0.046,0-0.091,0.015-0.133,0.046c-0.043,0.031-0.078,0.085-0.105,0.163
		c-0.028,0.078-0.049,0.18-0.065,0.305c-0.015,0.124-0.022,0.284-0.022,0.478c0,0.188,0.008,0.345,0.022,0.469
		c0.017,0.126,0.038,0.228,0.065,0.304c0.027,0.078,0.062,0.136,0.105,0.169c0.042,0.035,0.087,0.053,0.133,0.053h11.814
		c0.055,0,0.104-0.016,0.146-0.046c0.043-0.03,0.078-0.088,0.105-0.164c0.027-0.077,0.048-0.182,0.064-0.309
		c0.016-0.128,0.024-0.288,0.024-0.476c0-0.193-0.008-0.354-0.024-0.478c-0.017-0.125-0.037-0.227-0.064-0.305
		s-0.062-0.132-0.105-0.163c-0.042-0.031-0.091-0.046-0.146-0.046H54.631L54.631,238.671z M54.677,224.532
		c-0.062,0-0.117,0.012-0.164,0.034c-0.046,0.024-0.085,0.069-0.115,0.135c-0.033,0.066-0.056,0.155-0.072,0.269
		c-0.015,0.114-0.022,0.264-0.022,0.452c0,0.176,0.008,0.32,0.022,0.43c0.017,0.11,0.04,0.199,0.072,0.27
		c0.03,0.068,0.069,0.118,0.115,0.14c0.047,0.023,0.102,0.036,0.164,0.036h5.854c0.313,0,0.636-0.003,0.97-0.008
		c0.335-0.003,0.668-0.006,0.999-0.012c0.332-0.003,0.663-0.007,0.993-0.011c0.333-0.004,0.653-0.009,0.964-0.017v0.022
		c-0.637,0.32-1.271,0.646-1.899,0.977c-0.626,0.33-1.255,0.666-1.886,0.998l-5.564,2.968c-0.124,0.063-0.233,0.129-0.326,0.194
		c-0.094,0.066-0.169,0.138-0.228,0.216s-0.103,0.169-0.135,0.273c-0.03,0.106-0.047,0.226-0.047,0.358v1.448
		c0,0.187,0.063,0.356,0.188,0.503c0.125,0.148,0.319,0.222,0.584,0.222h11.299c0.055,0,0.104-0.014,0.146-0.04
		c0.043-0.029,0.078-0.077,0.105-0.146c0.027-0.07,0.048-0.161,0.064-0.274c0.016-0.113,0.024-0.264,0.024-0.45
		c0-0.173-0.008-0.312-0.024-0.421c-0.017-0.108-0.037-0.197-0.064-0.263c-0.027-0.067-0.062-0.113-0.105-0.141
		c-0.042-0.027-0.091-0.04-0.146-0.04h-6.754c-0.265,0-0.541,0.001-0.83,0.005c-0.289,0.002-0.579,0.01-0.871,0.017
		c-0.292,0.008-0.582,0.015-0.871,0.019s-0.565,0.006-0.83,0.006v-0.012c0.592-0.304,1.188-0.609,1.788-0.917
		c0.6-0.309,1.193-0.616,1.777-0.93l6.112-3.271c0.256-0.125,0.445-0.262,0.565-0.409c0.121-0.147,0.182-0.343,0.182-0.585v-1.343
		c0-0.203-0.062-0.369-0.187-0.503c-0.125-0.132-0.32-0.198-0.584-0.198H54.677L54.677,224.532z M61.97,213.5
		c-0.367,0.171-0.682,0.395-0.947,0.672c-0.265,0.276-0.494,0.589-0.688,0.94c-0.195,0.352-0.37,0.709-0.527,1.074
		c-0.155,0.368-0.31,0.726-0.462,1.077c-0.151,0.35-0.317,0.663-0.496,0.939c-0.18,0.277-0.39,0.501-0.631,0.672
		c-0.241,0.171-0.529,0.257-0.865,0.257c-0.225,0-0.438-0.046-0.636-0.142c-0.199-0.091-0.37-0.225-0.515-0.396
		c-0.145-0.173-0.257-0.382-0.339-0.631c-0.082-0.248-0.123-0.525-0.123-0.83c0-0.396,0.051-0.756,0.152-1.074
		c0.102-0.32,0.208-0.598,0.321-0.835c0.113-0.239,0.221-0.437,0.321-0.599c0.101-0.158,0.153-0.274,0.153-0.345
		c0-0.052-0.016-0.097-0.047-0.134c-0.032-0.033-0.08-0.065-0.146-0.094c-0.066-0.025-0.149-0.043-0.251-0.051
		c-0.101-0.007-0.226-0.011-0.374-0.011c-0.125,0-0.234,0.004-0.328,0.011c-0.094,0.008-0.173,0.021-0.24,0.04
		c-0.065,0.02-0.119,0.045-0.163,0.071c-0.043,0.025-0.093,0.067-0.152,0.122c-0.058,0.054-0.135,0.178-0.233,0.368
		c-0.097,0.191-0.188,0.416-0.275,0.677c-0.085,0.262-0.16,0.552-0.223,0.871c-0.062,0.32-0.092,0.643-0.092,0.971
		c0,0.561,0.08,1.082,0.239,1.566c0.16,0.482,0.383,0.903,0.672,1.262c0.288,0.359,0.636,0.638,1.045,0.84
		c0.409,0.203,0.864,0.304,1.362,0.304c0.506,0,0.949-0.08,1.325-0.245c0.378-0.164,0.701-0.383,0.971-0.658
		c0.268-0.277,0.502-0.592,0.701-0.942c0.198-0.35,0.379-0.706,0.542-1.069c0.164-0.361,0.318-0.718,0.462-1.069
		c0.145-0.353,0.308-0.661,0.491-0.936c0.183-0.271,0.394-0.491,0.631-0.659c0.237-0.167,0.517-0.252,0.835-0.252
		c0.297,0,0.559,0.062,0.79,0.183c0.229,0.119,0.424,0.288,0.583,0.501c0.16,0.216,0.283,0.47,0.369,0.767
		c0.086,0.296,0.128,0.619,0.128,0.97c0,0.467-0.056,0.89-0.17,1.268c-0.112,0.379-0.237,0.703-0.373,0.977
		c-0.137,0.271-0.261,0.496-0.375,0.673c-0.113,0.175-0.169,0.303-0.169,0.39c0,0.063,0.018,0.114,0.053,0.158
		c0.034,0.043,0.091,0.077,0.168,0.105c0.079,0.026,0.174,0.045,0.287,0.053c0.114,0.006,0.248,0.01,0.403,0.01
		c0.125,0,0.228-0.004,0.311-0.01c0.081-0.008,0.154-0.021,0.217-0.041c0.062-0.021,0.114-0.044,0.157-0.071
		c0.042-0.026,0.094-0.071,0.157-0.134c0.062-0.062,0.148-0.196,0.257-0.403c0.109-0.206,0.216-0.458,0.321-0.753
		c0.104-0.296,0.192-0.629,0.263-1c0.07-0.37,0.104-0.754,0.104-1.151c0-0.647-0.085-1.246-0.257-1.801
		c-0.171-0.552-0.411-1.027-0.719-1.425c-0.308-0.396-0.688-0.71-1.14-0.939c-0.451-0.229-0.966-0.346-1.542-0.346
		C62.768,213.243,62.336,213.329,61.97,213.5L61.97,213.5z M54.812,202.341c-0.105,0.015-0.19,0.037-0.256,0.062
		c-0.067,0.03-0.113,0.063-0.141,0.106c-0.027,0.044-0.042,0.09-0.042,0.146v8.694c0,0.054,0.014,0.103,0.042,0.145
		c0.028,0.044,0.074,0.08,0.141,0.112c0.066,0.031,0.151,0.053,0.256,0.063c0.106,0.012,0.228,0.018,0.368,0.018
		s0.263-0.006,0.369-0.018c0.105-0.011,0.191-0.032,0.256-0.063c0.067-0.032,0.115-0.068,0.146-0.112
		c0.032-0.042,0.047-0.091,0.047-0.145v-3.355h10.447c0.055,0,0.104-0.016,0.146-0.046c0.043-0.03,0.078-0.086,0.105-0.164
		c0.027-0.077,0.048-0.178,0.064-0.296c0.016-0.122,0.024-0.283,0.024-0.487c0-0.192-0.008-0.354-0.024-0.483
		c-0.017-0.13-0.037-0.229-0.064-0.299c-0.027-0.069-0.062-0.123-0.105-0.157c-0.042-0.035-0.091-0.052-0.146-0.052H55.998v-3.354
		c0-0.109-0.065-0.194-0.193-0.253c-0.127-0.057-0.336-0.086-0.625-0.086C55.039,202.318,54.918,202.326,54.812,202.341
		L54.812,202.341z M54.631,197.655c-0.046,0-0.091,0.016-0.133,0.047c-0.043,0.032-0.078,0.086-0.105,0.164
		c-0.028,0.078-0.049,0.178-0.065,0.305c-0.015,0.124-0.022,0.282-0.022,0.479c0,0.188,0.008,0.344,0.022,0.468
		c0.017,0.124,0.038,0.227,0.065,0.304c0.027,0.077,0.062,0.133,0.105,0.168c0.042,0.036,0.087,0.249,0.133,0.249h11.814
		c0.055,0,0.104-0.211,0.146-0.242c0.043-0.032,0.078-0.085,0.105-0.164c0.027-0.078,0.048-0.18,0.064-0.31
		c0.016-0.128,0.024-0.284,0.024-0.473c0-0.196-0.008-0.354-0.024-0.479c-0.017-0.127-0.037-0.227-0.064-0.305
		s-0.062-0.132-0.105-0.164c-0.042-0.031-0.091-0.047-0.146-0.047H54.631L54.631,197.655z M54.812,185.621
		c-0.105,0.015-0.19,0.036-0.256,0.062c-0.067,0.028-0.113,0.064-0.141,0.106c-0.027,0.043-0.042,0.092-0.042,0.145v8.696
		c0,0.054,0.014,0.104,0.042,0.146c0.028,0.043,0.074,0.079,0.141,0.11c0.066,0.031,0.151,0.053,0.256,0.064
		c0.106,0.012,0.228,0.019,0.368,0.019s0.263-0.007,0.369-0.019c0.105-0.012,0.191-0.033,0.256-0.064
		c0.067-0.031,0.115-0.067,0.146-0.11c0.032-0.043,0.047-0.093,0.047-0.146v-3.354h10.447c0.055,0,0.104-0.016,0.146-0.046
		c0.043-0.032,0.078-0.085,0.105-0.165c0.027-0.077,0.048-0.176,0.064-0.298c0.016-0.12,0.024-0.282,0.024-0.484
		c0-0.195-0.008-0.356-0.024-0.486c-0.017-0.126-0.037-0.227-0.064-0.297c-0.027-0.068-0.062-0.123-0.105-0.157
		c-0.042-0.034-0.091-0.052-0.146-0.052H55.998v-3.356c0-0.107-0.065-0.189-0.193-0.251c-0.127-0.057-0.336-0.086-0.625-0.086
		C55.039,185.596,54.918,185.605,54.812,185.621L54.812,185.621z M54.631,173.046c-0.046,0-0.091,0.015-0.133,0.041
		c-0.043,0.026-0.078,0.077-0.105,0.151c-0.028,0.073-0.049,0.171-0.065,0.292c-0.015,0.12-0.022,0.294-0.022,0.52
		c0,0.187,0.008,0.343,0.022,0.468c0.017,0.125,0.038,0.226,0.065,0.297c0.027,0.075,0.062,0.128,0.105,0.16
		c0.042,0.031,0.087,0.046,0.133,0.046h7.281c0.685,0,1.221,0.063,1.606,0.192c0.386,0.129,0.711,0.326,0.976,0.59
		c0.266,0.266,0.463,0.581,0.595,0.947c0.133,0.365,0.199,0.771,0.199,1.213c0,0.446-0.065,0.854-0.199,1.222
		c-0.132,0.372-0.33,0.69-0.595,0.96c-0.265,0.268-0.595,0.471-0.987,0.607c-0.394,0.137-0.968,0.205-1.723,0.205h-7.153
		c-0.046,0-0.091,0.015-0.133,0.045c-0.043,0.033-0.078,0.085-0.105,0.159c-0.028,0.075-0.049,0.176-0.065,0.304
		c-0.015,0.13-0.022,0.293-0.022,0.496c0,0.188,0.008,0.344,0.022,0.467c0.017,0.126,0.038,0.226,0.065,0.306
		c0.027,0.077,0.062,0.132,0.105,0.163c0.042,0.031,0.087,0.047,0.133,0.047h7.292c0.99,0,1.775-0.113,2.355-0.339
		c0.58-0.227,1.067-0.556,1.46-0.988c0.394-0.432,0.689-0.952,0.888-1.561c0.198-0.606,0.297-1.28,0.297-2.021
		c0-0.765-0.109-1.453-0.327-2.067c-0.218-0.616-0.531-1.139-0.94-1.566c-0.409-0.429-0.907-0.762-1.495-0.999
		c-0.589-0.238-1.334-0.356-2.239-0.356H54.631L54.631,173.046z M54.631,158.954c-0.046,0-0.091,0.014-0.133,0.04
		c-0.043,0.027-0.078,0.077-0.105,0.152c-0.028,0.073-0.049,0.171-0.065,0.292c-0.015,0.121-0.022,0.295-0.022,0.52
		c0,0.188,0.008,0.344,0.022,0.468c0.017,0.126,0.038,0.225,0.065,0.298c0.027,0.075,0.062,0.127,0.105,0.158
		c0.042,0.03,0.087,0.046,0.133,0.046h7.281c0.685,0,1.221,0.065,1.606,0.194c0.386,0.128,0.711,0.325,0.976,0.588
		c0.266,0.267,0.463,0.582,0.595,0.948c0.133,0.365,0.199,0.771,0.199,1.216c0,0.444-0.065,0.85-0.199,1.222
		c-0.132,0.368-0.33,0.689-0.595,0.956c-0.265,0.271-0.595,0.472-0.987,0.608c-0.394,0.137-0.968,0.204-1.723,0.204h-7.153
		c-0.046,0-0.091,0.018-0.133,0.047c-0.043,0.032-0.078,0.084-0.105,0.156c-0.028,0.077-0.049,0.178-0.065,0.307
		c-0.015,0.127-0.022,0.294-0.022,0.496c0,0.188,0.008,0.343,0.022,0.467c0.017,0.124,0.038,0.228,0.065,0.305
		c0.027,0.076,0.062,0.132,0.105,0.163c0.042,0.032,0.087,0.045,0.133,0.045h7.292c0.99,0,1.775-0.11,2.355-0.338
		c0.58-0.225,1.067-0.554,1.46-0.987c0.394-0.432,0.689-0.951,0.888-1.561c0.198-0.606,0.297-1.28,0.297-2.021
		c0-0.764-0.109-1.453-0.327-2.068s-0.531-1.138-0.94-1.565c-0.409-0.429-0.907-0.763-1.495-0.999
		c-0.589-0.239-1.334-0.356-2.239-0.356H54.631L54.631,158.954z M54.812,146.94c-0.105,0.016-0.19,0.038-0.256,0.063
		c-0.067,0.028-0.113,0.064-0.141,0.106c-0.027,0.043-0.042,0.092-0.042,0.146v8.694c0,0.056,0.014,0.103,0.042,0.146
		c0.028,0.044,0.074,0.08,0.141,0.11c0.066,0.032,0.151,0.054,0.256,0.064c0.106,0.014,0.228,0.018,0.368,0.018
		s0.263-0.004,0.369-0.018c0.105-0.011,0.191-0.032,0.256-0.064c0.067-0.03,0.115-0.066,0.146-0.11
		c0.032-0.044,0.047-0.091,0.047-0.146v-3.354h10.447c0.055,0,0.104-0.017,0.146-0.046c0.043-0.031,0.078-0.087,0.105-0.166
		c0.027-0.074,0.048-0.175,0.064-0.297c0.016-0.119,0.024-0.282,0.024-0.484c0-0.194-0.008-0.356-0.024-0.484
		c-0.017-0.129-0.037-0.229-0.064-0.3c-0.027-0.068-0.062-0.122-0.105-0.156c-0.042-0.034-0.091-0.052-0.146-0.052H55.998v-3.355
		c0-0.108-0.065-0.192-0.193-0.252c-0.127-0.057-0.336-0.085-0.625-0.085C55.039,146.918,54.918,146.926,54.812,146.94
		L54.812,146.94z M55.098,129.92c-0.17-0.054-0.309-0.09-0.415-0.105c-0.105-0.015-0.185,0.002-0.239,0.052
		c-0.053,0.051-0.092,0.141-0.111,0.269c-0.02,0.128-0.029,0.306-0.029,0.531c0,0.226,0.006,0.406,0.018,0.539
		c0.011,0.131,0.032,0.237,0.063,0.315c0.032,0.078,0.073,0.134,0.124,0.169c0.05,0.034,0.114,0.067,0.192,0.098l10.049,3.471v0.023
		l-10.084,3.576c-0.07,0.024-0.129,0.049-0.176,0.076c-0.046,0.028-0.084,0.08-0.11,0.158c-0.028,0.079-0.047,0.186-0.058,0.321
		c-0.012,0.137-0.018,0.326-0.018,0.568c0,0.249,0.008,0.443,0.022,0.585c0.017,0.14,0.049,0.239,0.1,0.296
		c0.051,0.06,0.129,0.08,0.234,0.065c0.104-0.015,0.243-0.047,0.415-0.094l11.276-4.172c0.093-0.03,0.167-0.07,0.222-0.117
		c0.054-0.046,0.097-0.116,0.129-0.21c0.031-0.093,0.052-0.222,0.063-0.385c0.013-0.164,0.019-0.379,0.019-0.644
		c0-0.241-0.006-0.437-0.019-0.583c-0.011-0.147-0.032-0.268-0.063-0.357c-0.032-0.089-0.075-0.153-0.129-0.193
		c-0.055-0.039-0.125-0.074-0.21-0.105L55.098,129.92L55.098,129.92z M57.681,116.861c-0.772,0.25-1.418,0.616-1.94,1.099
		c-0.521,0.483-0.915,1.077-1.18,1.782c-0.264,0.705-0.397,1.513-0.397,2.425c0,0.951,0.152,1.792,0.456,2.524
		c0.304,0.733,0.736,1.349,1.297,1.846c0.561,0.5,1.241,0.877,2.039,1.134c0.799,0.258,1.688,0.386,2.67,0.386
		c1.044,0,1.96-0.117,2.746-0.351c0.787-0.233,1.443-0.589,1.969-1.068c0.525-0.479,0.921-1.075,1.186-1.787
		c0.265-0.713,0.397-1.546,0.397-2.496c0-0.951-0.151-1.792-0.455-2.524c-0.304-0.732-0.739-1.347-1.303-1.841
		c-0.565-0.494-1.25-0.869-2.057-1.121c-0.806-0.253-1.716-0.38-2.729-0.38C59.352,116.488,58.452,116.613,57.681,116.861
		L57.681,116.861z M62.338,118.76c0.581,0.129,1.089,0.341,1.525,0.638c0.436,0.296,0.783,0.681,1.039,1.157
		c0.257,0.474,0.385,1.056,0.385,1.741c0,0.686-0.114,1.263-0.344,1.73c-0.23,0.466-0.558,0.847-0.982,1.139s-0.929,0.5-1.514,0.625
		c-0.584,0.125-1.231,0.188-1.939,0.188c-0.631,0-1.233-0.069-1.805-0.205c-0.574-0.137-1.076-0.351-1.508-0.643
		c-0.433-0.292-0.773-0.673-1.022-1.146c-0.25-0.471-0.375-1.049-0.375-1.735c0-0.686,0.117-1.262,0.351-1.729
		c0.233-0.467,0.561-0.845,0.981-1.134c0.421-0.288,0.918-0.497,1.491-0.625c0.572-0.128,1.202-0.192,1.887-0.192
		C61.148,118.568,61.758,118.632,62.338,118.76L62.338,118.76z M57.681,102.43c-0.772,0.25-1.418,0.616-1.94,1.098
		c-0.521,0.484-0.915,1.078-1.18,1.783c-0.264,0.705-0.397,1.513-0.397,2.425c0,0.95,0.152,1.792,0.456,2.523
		c0.304,0.732,0.736,1.349,1.297,1.847c0.561,0.499,1.241,0.875,2.039,1.134c0.799,0.257,1.688,0.385,2.67,0.385
		c1.044,0,1.96-0.117,2.746-0.351c0.787-0.233,1.443-0.589,1.969-1.068c0.525-0.479,0.921-1.075,1.186-1.788
		c0.265-0.713,0.397-1.544,0.397-2.495c0-0.95-0.151-1.792-0.455-2.524s-0.739-1.346-1.303-1.841
		c-0.565-0.495-1.25-0.868-2.057-1.122c-0.806-0.253-1.716-0.379-2.729-0.379C59.352,102.057,58.452,102.182,57.681,102.43
		L57.681,102.43z M62.338,104.33c0.581,0.128,1.089,0.34,1.525,0.637c0.436,0.296,0.783,0.682,1.039,1.157
		c0.257,0.475,0.385,1.056,0.385,1.741c0,0.686-0.114,1.262-0.344,1.73c-0.23,0.467-0.558,0.847-0.982,1.139
		c-0.424,0.292-0.929,0.5-1.514,0.625c-0.584,0.125-1.231,0.186-1.939,0.186c-0.631,0-1.233-0.067-1.805-0.204
		c-0.574-0.136-1.076-0.351-1.508-0.643c-0.433-0.292-0.773-0.673-1.022-1.145c-0.25-0.472-0.375-1.05-0.375-1.735
		c0-0.686,0.117-1.262,0.351-1.729c0.233-0.468,0.561-0.845,0.981-1.134c0.421-0.288,0.918-0.497,1.491-0.625
		c0.572-0.129,1.202-0.193,1.887-0.193C61.148,104.137,61.758,104.201,62.338,104.33L62.338,104.33z M66.252,89.628
		c-0.097,0.028-0.247,0.081-0.45,0.158l-2.723,1.04c-0.312,0.125-0.591,0.251-0.841,0.379c-0.249,0.129-0.467,0.265-0.654,0.41
		c-0.187,0.145-0.345,0.304-0.473,0.479c-0.128,0.176-0.236,0.368-0.321,0.579c-0.125-0.381-0.284-0.721-0.48-1.017
		c-0.194-0.296-0.425-0.547-0.695-0.754c-0.27-0.207-0.57-0.366-0.905-0.479c-0.335-0.113-0.706-0.169-1.111-0.169
		c-0.506,0-0.959,0.093-1.36,0.28c-0.401,0.188-0.739,0.458-1.011,0.813c-0.273,0.353-0.483,0.79-0.632,1.308
		c-0.147,0.518-0.223,1.151-0.223,1.898v3.296c0,0.156,0.057,0.304,0.17,0.444c0.113,0.14,0.298,0.209,0.555,0.209h11.347
		c0.055,0,0.104-0.015,0.146-0.046c0.043-0.031,0.078-0.085,0.105-0.163c0.027-0.078,0.048-0.182,0.064-0.311
		c0.016-0.128,0.024-0.286,0.024-0.473c0-0.195-0.008-0.354-0.024-0.479c-0.017-0.125-0.037-0.226-0.064-0.304
		c-0.027-0.077-0.062-0.133-0.105-0.164c-0.042-0.031-0.091-0.047-0.146-0.047h-5.059v-1.203c0-0.405,0.05-0.735,0.151-0.988
		c0.102-0.252,0.244-0.474,0.427-0.66c0.183-0.187,0.408-0.351,0.672-0.491c0.265-0.141,0.561-0.269,0.888-0.386l2.828-1.005
		c0.086-0.023,0.157-0.054,0.211-0.093c0.054-0.038,0.098-0.1,0.134-0.181c0.035-0.082,0.058-0.187,0.069-0.316
		c0.013-0.128,0.019-0.297,0.019-0.508c0-0.218-0.006-0.399-0.019-0.543c-0.011-0.144-0.028-0.256-0.052-0.338
		s-0.053-0.138-0.087-0.17c-0.036-0.03-0.081-0.046-0.134-0.046C66.429,89.588,66.349,89.602,66.252,89.628L66.252,89.628z
		 M58.651,92.492c0.25,0.098,0.466,0.244,0.648,0.438c0.183,0.195,0.324,0.445,0.421,0.749c0.098,0.304,0.146,0.698,0.146,1.181
		v1.658h-3.95v-1.741c0-0.498,0.049-0.894,0.146-1.186c0.098-0.292,0.23-0.531,0.397-0.719c0.167-0.187,0.368-0.32,0.603-0.403
		c0.234-0.081,0.487-0.123,0.76-0.123C58.125,92.346,58.402,92.395,58.651,92.492L58.651,92.492z"/>
	<path fill="#1D1D1B" d="M47.531,230.418c-0.113,0.03-0.278,0.085-0.497,0.164l-2.536,0.992c-0.303,0.125-0.574,0.255-0.812,0.388
		c-0.238,0.13-0.444,0.269-0.619,0.414c-0.176,0.143-0.322,0.297-0.439,0.462c-0.117,0.163-0.214,0.342-0.292,0.536
		c-0.126-0.405-0.291-0.76-0.497-1.063s-0.448-0.558-0.725-0.766c-0.276-0.204-0.589-0.358-0.94-0.461
		c-0.35-0.103-0.736-0.151-1.156-0.151c-0.585,0-1.093,0.113-1.525,0.338c-0.433,0.226-0.79,0.542-1.07,0.947
		c-0.28,0.404-0.486,0.886-0.619,1.444c-0.132,0.556-0.199,1.228-0.199,2.015v3.973c0,0.235,0.07,0.43,0.21,0.591
		c0.14,0.159,0.358,0.238,0.654,0.238h11.184c0.077,0,0.144-0.021,0.198-0.068c0.055-0.047,0.1-0.128,0.135-0.24
		c0.034-0.113,0.059-0.27,0.076-0.469c0.015-0.199,0.023-0.445,0.023-0.741c0-0.288-0.008-0.529-0.023-0.725
		c-0.017-0.194-0.042-0.35-0.076-0.468c-0.036-0.114-0.08-0.198-0.135-0.245c-0.054-0.046-0.121-0.07-0.198-0.07h-4.499v-0.864
		c0-0.288,0.034-0.525,0.104-0.706c0.071-0.184,0.18-0.349,0.328-0.493c0.148-0.142,0.333-0.271,0.555-0.385s0.489-0.223,0.8-0.333
		l2.653-0.899c0.093-0.023,0.171-0.063,0.233-0.116c0.063-0.056,0.113-0.145,0.152-0.268c0.039-0.127,0.065-0.29,0.082-0.493
		c0.015-0.202,0.023-0.471,0.023-0.807c0-0.351-0.006-0.639-0.018-0.864c-0.011-0.226-0.028-0.401-0.047-0.526
		c-0.019-0.123-0.048-0.21-0.088-0.256c-0.038-0.048-0.084-0.069-0.14-0.069C47.732,230.373,47.645,230.387,47.531,230.418
		L47.531,230.418z M40.047,234.222c0.203,0.082,0.376,0.205,0.52,0.368c0.146,0.162,0.256,0.367,0.333,0.613
		c0.078,0.247,0.117,0.565,0.117,0.964v1.285h-3.202v-1.378c0-0.421,0.04-0.748,0.118-0.982c0.078-0.233,0.184-0.425,0.321-0.573
		c0.136-0.147,0.298-0.255,0.485-0.319c0.187-0.067,0.39-0.1,0.607-0.1C39.61,234.1,39.844,234.139,40.047,234.222L40.047,234.222z
		 M47.503,217.639c-0.055,0.013-0.117,0.032-0.187,0.061c-0.071,0.026-0.151,0.063-0.246,0.11c-0.094,0.047-0.198,0.102-0.315,0.163
		l-5.656,3.634l-4.09-3.248c-0.141-0.1-0.264-0.183-0.368-0.245c-0.105-0.062-0.199-0.111-0.281-0.146
		c-0.081-0.035-0.153-0.061-0.216-0.078c-0.062-0.016-0.124-0.021-0.187-0.021c-0.07,0-0.133,0.023-0.187,0.076
		c-0.054,0.05-0.097,0.136-0.129,0.256c-0.031,0.121-0.056,0.284-0.076,0.485c-0.019,0.202-0.029,0.46-0.029,0.771
		c0,0.297,0.008,0.538,0.024,0.726c0.016,0.188,0.039,0.342,0.07,0.461c0.031,0.121,0.076,0.217,0.134,0.287
		c0.059,0.07,0.135,0.132,0.229,0.188l5.07,3.457h-5.095c-0.069,0-0.132,0.024-0.187,0.07c-0.054,0.047-0.099,0.128-0.134,0.245
		c-0.035,0.118-0.062,0.272-0.083,0.467c-0.019,0.195-0.029,0.437-0.029,0.725c0,0.297,0.01,0.542,0.029,0.736
		c0.02,0.195,0.047,0.352,0.083,0.468c0.035,0.117,0.08,0.2,0.134,0.244c0.055,0.048,0.118,0.071,0.187,0.071h11.687
		c0.077,0,0.144-0.023,0.198-0.071c0.055-0.044,0.1-0.127,0.135-0.244c0.034-0.116,0.059-0.272,0.076-0.468
		c0.015-0.194,0.023-0.439,0.023-0.736c0-0.288-0.01-0.529-0.029-0.725c-0.021-0.194-0.048-0.349-0.083-0.467
		c-0.035-0.117-0.079-0.198-0.134-0.245c-0.054-0.046-0.121-0.07-0.198-0.07h-5.902l5.878-3.6c0.102-0.055,0.183-0.113,0.245-0.181
		c0.062-0.064,0.11-0.162,0.141-0.286s0.053-0.29,0.064-0.491c0.012-0.203,0.018-0.463,0.018-0.783c0-0.311-0.008-0.571-0.023-0.782
		c-0.017-0.211-0.042-0.376-0.076-0.497c-0.036-0.121-0.08-0.206-0.135-0.256c-0.054-0.051-0.121-0.078-0.198-0.078
		C47.608,217.622,47.558,217.627,47.503,217.639L47.503,217.639z M38.995,204.454c-0.756,0.288-1.385,0.709-1.888,1.261
		c-0.503,0.556-0.878,1.23-1.128,2.027c-0.248,0.8-0.374,1.753-0.374,2.856v3.672c0,0.232,0.07,0.43,0.21,0.589
		c0.14,0.16,0.358,0.24,0.654,0.24h10.681c0.295,0,0.514-0.08,0.654-0.24c0.141-0.159,0.211-0.356,0.211-0.589v-3.389
		c0-1.124-0.116-2.1-0.345-2.928c-0.23-0.832-0.597-1.535-1.104-2.114c-0.506-0.581-1.165-1.029-1.974-1.346
		c-0.811-0.314-1.796-0.473-2.957-0.473C40.631,204.021,39.752,204.165,38.995,204.454L38.995,204.454z M43.448,207.35
		c0.499,0.149,0.917,0.373,1.256,0.674c0.339,0.3,0.595,0.672,0.765,1.114c0.173,0.444,0.257,1.01,0.257,1.695v1.25h-7.841v-1.25
		c0-0.748,0.098-1.349,0.292-1.8c0.194-0.452,0.465-0.817,0.812-1.099c0.347-0.279,0.753-0.485,1.221-0.613
		c0.467-0.129,0.974-0.192,1.519-0.192C42.376,207.129,42.949,207.205,43.448,207.35L43.448,207.35z M35.98,187.276
		c-0.062,0-0.116,0.012-0.163,0.035c-0.047,0.022-0.085,0.068-0.117,0.135c-0.032,0.067-0.055,0.156-0.07,0.267
		c-0.016,0.115-0.023,0.265-0.023,0.45c0,0.181,0.008,0.324,0.023,0.434s0.039,0.198,0.07,0.27c0.032,0.069,0.07,0.116,0.117,0.14
		s0.101,0.035,0.163,0.035h5.855c0.312,0,0.635-0.002,0.97-0.005c0.334-0.005,0.667-0.008,0.999-0.013
		c0.332-0.003,0.663-0.006,0.994-0.011c0.332-0.005,0.652-0.011,0.964-0.019v0.024c-0.639,0.319-1.272,0.645-1.899,0.976
		s-1.256,0.664-1.888,1l-5.562,2.966c-0.125,0.064-0.234,0.127-0.328,0.194c-0.092,0.064-0.169,0.138-0.228,0.215
		c-0.058,0.079-0.104,0.171-0.133,0.274c-0.032,0.105-0.047,0.225-0.047,0.358v1.448c0,0.187,0.062,0.354,0.187,0.502
		c0.125,0.148,0.32,0.222,0.584,0.222h11.3c0.054,0,0.104-0.013,0.146-0.041c0.043-0.027,0.077-0.074,0.105-0.146
		c0.027-0.069,0.048-0.161,0.064-0.274c0.015-0.112,0.023-0.263,0.023-0.45c0-0.171-0.008-0.311-0.023-0.42
		c-0.017-0.11-0.038-0.196-0.064-0.265c-0.028-0.063-0.062-0.112-0.105-0.14c-0.042-0.024-0.092-0.039-0.146-0.039h-6.754
		c-0.265,0-0.542,0.002-0.83,0.005c-0.288,0.004-0.578,0.011-0.87,0.016c-0.293,0.01-0.583,0.015-0.871,0.019
		c-0.289,0.003-0.565,0.006-0.83,0.006v-0.012c0.591-0.304,1.187-0.609,1.788-0.917c0.6-0.309,1.191-0.617,1.775-0.929l6.112-3.272
		c0.257-0.126,0.446-0.261,0.567-0.408c0.121-0.148,0.182-0.343,0.182-0.585v-1.344c0-0.203-0.063-0.369-0.188-0.503
		c-0.125-0.132-0.319-0.198-0.584-0.198H35.98L35.98,187.276z M46.865,175.801c-0.097,0.016-0.177,0.036-0.239,0.064
		c-0.062,0.025-0.106,0.061-0.134,0.105c-0.027,0.042-0.041,0.087-0.041,0.134v4.943h-4.055v-4.196c0-0.053-0.014-0.102-0.041-0.146
		c-0.028-0.042-0.071-0.079-0.134-0.11c-0.062-0.031-0.142-0.051-0.239-0.064c-0.097-0.012-0.213-0.019-0.345-0.019
		c-0.148,0-0.273,0.007-0.375,0.019c-0.101,0.014-0.183,0.033-0.245,0.064s-0.107,0.068-0.135,0.11
		c-0.027,0.045-0.041,0.094-0.041,0.146v4.196h-3.599v-4.861c0-0.055-0.016-0.104-0.048-0.147c-0.031-0.042-0.076-0.076-0.134-0.104
		c-0.058-0.029-0.136-0.051-0.234-0.065c-0.096-0.015-0.216-0.022-0.356-0.022c-0.14,0-0.263,0.008-0.369,0.022
		c-0.104,0.015-0.188,0.036-0.25,0.065c-0.062,0.027-0.107,0.062-0.134,0.104c-0.028,0.043-0.042,0.093-0.042,0.147v6.192
		c0,0.155,0.057,0.305,0.169,0.444c0.113,0.141,0.298,0.211,0.556,0.211h10.891c0.257,0,0.441-0.07,0.556-0.211
		c0.112-0.14,0.169-0.289,0.169-0.444v-6.274c0-0.047-0.014-0.092-0.042-0.134c-0.027-0.045-0.074-0.08-0.14-0.105
		c-0.065-0.028-0.15-0.049-0.251-0.064c-0.101-0.017-0.222-0.022-0.362-0.022C47.082,175.779,46.963,175.785,46.865,175.801
		L46.865,175.801z M39.141,162.446c-0.744,0.263-1.374,0.651-1.887,1.161c-0.514,0.511-0.905,1.143-1.174,1.894
		c-0.269,0.752-0.403,1.665-0.403,2.741v3.188c0,0.156,0.057,0.305,0.169,0.444c0.113,0.139,0.298,0.212,0.556,0.212h10.891
		c0.257,0,0.441-0.073,0.556-0.212c0.112-0.14,0.169-0.288,0.169-0.444v-2.933c0-1.099-0.127-2.037-0.38-2.817
		c-0.253-0.776-0.641-1.437-1.163-1.974s-1.18-0.948-1.976-1.233c-0.794-0.283-1.737-0.425-2.828-0.425
		C40.728,162.048,39.885,162.179,39.141,162.446L39.141,162.446z M43.804,164.361c0.588,0.173,1.079,0.431,1.473,0.777
		c0.393,0.346,0.685,0.782,0.876,1.303c0.191,0.521,0.286,1.181,0.286,1.975v1.683h-9.185v-1.692c0-0.842,0.113-1.526,0.339-2.052
		c0.225-0.527,0.54-0.955,0.94-1.288c0.401-0.33,0.875-0.572,1.419-0.728c0.546-0.156,1.139-0.234,1.777-0.234
		C42.524,164.104,43.216,164.19,43.804,164.361L43.804,164.361z M46.865,151.226c-0.097,0.017-0.177,0.037-0.239,0.065
		c-0.062,0.027-0.106,0.062-0.134,0.104c-0.027,0.044-0.041,0.088-0.041,0.135v4.943h-4.055v-4.196c0-0.054-0.014-0.104-0.041-0.147
		c-0.028-0.041-0.071-0.078-0.134-0.108c-0.062-0.031-0.142-0.054-0.239-0.065c-0.097-0.012-0.213-0.019-0.345-0.019
		c-0.148,0-0.273,0.007-0.375,0.019c-0.101,0.012-0.183,0.034-0.245,0.065c-0.062,0.03-0.107,0.067-0.135,0.108
		c-0.027,0.044-0.041,0.094-0.041,0.147v4.196h-3.599v-4.861c0-0.056-0.016-0.104-0.048-0.146c-0.031-0.043-0.076-0.078-0.134-0.106
		c-0.058-0.025-0.136-0.047-0.234-0.062c-0.096-0.017-0.216-0.024-0.356-0.024c-0.14,0-0.263,0.008-0.369,0.024
		c-0.104,0.016-0.188,0.037-0.25,0.062c-0.062,0.028-0.107,0.063-0.134,0.106c-0.028,0.042-0.042,0.091-0.042,0.146v6.193
		c0,0.156,0.057,0.302,0.169,0.442c0.113,0.142,0.298,0.211,0.556,0.211h10.891c0.257,0,0.441-0.069,0.556-0.211
		c0.112-0.141,0.169-0.286,0.169-0.442v-6.275c0-0.047-0.014-0.091-0.042-0.135c-0.027-0.043-0.074-0.077-0.14-0.104
		c-0.065-0.028-0.15-0.049-0.251-0.065c-0.101-0.015-0.222-0.022-0.362-0.022C47.082,151.204,46.963,151.211,46.865,151.226
		L46.865,151.226z M47.556,138.635c-0.098,0.027-0.248,0.081-0.451,0.158l-2.722,1.04c-0.312,0.125-0.592,0.25-0.843,0.381
		c-0.248,0.127-0.466,0.265-0.654,0.409c-0.187,0.143-0.344,0.303-0.473,0.477c-0.129,0.177-0.236,0.37-0.322,0.58
		c-0.125-0.383-0.284-0.721-0.479-1.016c-0.195-0.297-0.428-0.547-0.696-0.755c-0.269-0.206-0.57-0.365-0.905-0.479
		c-0.335-0.112-0.705-0.168-1.11-0.168c-0.507,0-0.96,0.092-1.361,0.28c-0.402,0.187-0.739,0.458-1.012,0.812
		c-0.272,0.355-0.483,0.791-0.63,1.308c-0.149,0.521-0.223,1.152-0.223,1.9v3.295c0,0.156,0.057,0.305,0.169,0.444
		c0.113,0.141,0.298,0.211,0.556,0.211h11.346c0.054,0,0.104-0.016,0.146-0.047c0.043-0.031,0.077-0.087,0.105-0.164
		c0.027-0.079,0.048-0.181,0.064-0.311c0.015-0.128,0.023-0.285,0.023-0.472c0-0.195-0.008-0.355-0.023-0.479
		c-0.017-0.124-0.038-0.226-0.064-0.305c-0.028-0.077-0.062-0.132-0.105-0.161c-0.042-0.034-0.092-0.048-0.146-0.048h-5.06v-1.205
		c0-0.403,0.051-0.734,0.151-0.985c0.102-0.254,0.244-0.476,0.427-0.662s0.407-0.35,0.671-0.488
		c0.266-0.143,0.561-0.271,0.889-0.388l2.829-1.005c0.085-0.023,0.155-0.055,0.209-0.094c0.055-0.037,0.1-0.098,0.135-0.18
		c0.035-0.081,0.059-0.188,0.07-0.315c0.012-0.129,0.018-0.299,0.018-0.509c0-0.217-0.006-0.399-0.018-0.543
		c-0.011-0.144-0.03-0.256-0.052-0.338c-0.023-0.083-0.053-0.139-0.088-0.17c-0.035-0.031-0.079-0.047-0.134-0.047
		C47.732,138.594,47.654,138.608,47.556,138.635L47.556,138.635z M39.953,141.499c0.25,0.097,0.466,0.244,0.649,0.438
		c0.183,0.194,0.323,0.444,0.421,0.747c0.097,0.305,0.146,0.697,0.146,1.181v1.66h-3.95v-1.741c0-0.499,0.049-0.895,0.146-1.187
		c0.098-0.293,0.229-0.532,0.397-0.719c0.168-0.187,0.368-0.32,0.602-0.403c0.233-0.082,0.486-0.124,0.759-0.124
		C39.428,141.352,39.705,141.401,39.953,141.499L39.953,141.499z M46.831,128.674c-0.105,0.015-0.191,0.039-0.258,0.07
		c-0.066,0.031-0.112,0.069-0.139,0.117c-0.028,0.047-0.041,0.098-0.041,0.153v4.288H35.934c-0.047,0-0.091,0.016-0.134,0.047
		c-0.044,0.031-0.077,0.086-0.105,0.164c-0.027,0.078-0.049,0.179-0.064,0.304c-0.016,0.125-0.023,0.285-0.023,0.479
		c0,0.187,0.008,0.345,0.023,0.474c0.016,0.128,0.038,0.232,0.064,0.31c0.028,0.078,0.062,0.132,0.105,0.163
		c0.043,0.032,0.087,0.047,0.134,0.047h11.358c0.257,0,0.441-0.071,0.556-0.21c0.112-0.14,0.169-0.288,0.169-0.444v-5.62
		c0-0.117-0.065-0.208-0.193-0.27c-0.128-0.062-0.333-0.093-0.614-0.093C47.062,128.651,46.936,128.658,46.831,128.674
		L46.831,128.674z M36.039,120.477c-0.063,0.023-0.117,0.05-0.165,0.082c-0.046,0.031-0.085,0.068-0.117,0.111
		c-0.03,0.042-0.056,0.099-0.075,0.169c-0.019,0.07-0.035,0.152-0.047,0.246c-0.012,0.093-0.019,0.208-0.023,0.345
		c-0.004,0.136-0.006,0.301-0.006,0.496c0,0.234,0.006,0.427,0.018,0.579c0.012,0.152,0.032,0.275,0.059,0.368
		c0.027,0.094,0.068,0.164,0.123,0.211c0.055,0.047,0.125,0.086,0.211,0.117l11.276,4.219c0.164,0.062,0.299,0.098,0.409,0.105
		c0.109,0.008,0.191-0.015,0.245-0.071c0.054-0.053,0.091-0.149,0.112-0.286c0.019-0.136,0.029-0.317,0.029-0.543
		c0-0.218-0.006-0.397-0.018-0.537c-0.011-0.141-0.034-0.247-0.064-0.322c-0.031-0.073-0.071-0.129-0.117-0.168
		c-0.047-0.04-0.105-0.074-0.176-0.105l-2.746-0.958v-5.236l2.769-1.017c0.07-0.023,0.128-0.05,0.175-0.083
		c0.047-0.031,0.083-0.084,0.106-0.163c0.022-0.078,0.041-0.188,0.052-0.333c0.012-0.144,0.018-0.345,0.018-0.602
		c0-0.257-0.008-0.46-0.023-0.608c-0.017-0.147-0.051-0.253-0.105-0.315c-0.055-0.062-0.132-0.088-0.233-0.076
		c-0.102,0.011-0.237,0.044-0.409,0.099L36.039,120.477L36.039,120.477z M43.401,119.811v4.196l-5.867-2.046v-0.023L43.401,119.811
		L43.401,119.811z M35.98,103.643c-0.062,0-0.116,0.013-0.163,0.037c-0.047,0.022-0.085,0.067-0.117,0.134s-0.055,0.155-0.07,0.268
		c-0.016,0.113-0.023,0.264-0.023,0.45c0,0.179,0.008,0.323,0.023,0.433c0.016,0.109,0.039,0.199,0.07,0.269s0.07,0.117,0.117,0.14
		s0.101,0.035,0.163,0.035h5.855c0.312,0,0.635-0.002,0.97-0.006c0.334-0.003,0.667-0.007,0.999-0.011
		c0.332-0.004,0.663-0.007,0.994-0.012c0.332-0.004,0.652-0.01,0.964-0.017v0.023c-0.639,0.319-1.272,0.645-1.899,0.976
		c-0.627,0.331-1.256,0.664-1.888,0.999l-5.562,2.968c-0.125,0.063-0.234,0.126-0.328,0.192c-0.092,0.066-0.169,0.139-0.228,0.217
		c-0.058,0.078-0.104,0.168-0.133,0.275c-0.032,0.104-0.047,0.223-0.047,0.356v1.449c0,0.187,0.062,0.354,0.187,0.502
		c0.125,0.148,0.32,0.222,0.584,0.222h11.3c0.054,0,0.104-0.013,0.146-0.041c0.043-0.027,0.077-0.076,0.105-0.146
		c0.027-0.07,0.048-0.161,0.064-0.275c0.015-0.112,0.023-0.263,0.023-0.45c0-0.171-0.008-0.312-0.023-0.42
		c-0.017-0.109-0.038-0.197-0.064-0.264c-0.028-0.065-0.062-0.112-0.105-0.14c-0.042-0.027-0.092-0.041-0.146-0.041h-6.754
		c-0.265,0-0.542,0.002-0.83,0.006c-0.288,0.004-0.578,0.01-0.87,0.018c-0.293,0.008-0.583,0.014-0.871,0.018
		c-0.289,0.003-0.565,0.006-0.83,0.006V111.8c0.591-0.305,1.187-0.61,1.788-0.917c0.6-0.308,1.191-0.618,1.775-0.929l6.112-3.271
		c0.257-0.125,0.446-0.261,0.567-0.41c0.121-0.147,0.182-0.343,0.182-0.584v-1.343c0-0.203-0.063-0.371-0.188-0.503
		c-0.125-0.131-0.319-0.199-0.584-0.199H35.98L35.98,103.643z M39.141,89.761c-0.744,0.266-1.374,0.653-1.887,1.163
		s-0.905,1.142-1.174,1.893c-0.269,0.753-0.403,1.666-0.403,2.741v3.19c0,0.156,0.057,0.305,0.169,0.445s0.298,0.21,0.556,0.21
		h10.891c0.257,0,0.441-0.07,0.556-0.21c0.112-0.14,0.169-0.289,0.169-0.445v-2.933c0-1.098-0.127-2.037-0.38-2.816
		c-0.253-0.779-0.641-1.437-1.163-1.975c-0.521-0.537-1.18-0.949-1.976-1.233c-0.794-0.285-1.737-0.426-2.828-0.426
		C40.728,89.364,39.885,89.497,39.141,89.761L39.141,89.761z M43.804,91.678c0.588,0.171,1.079,0.431,1.473,0.778
		c0.393,0.346,0.685,0.781,0.876,1.302c0.191,0.522,0.286,1.181,0.286,1.975v1.683h-9.185v-1.694c0-0.841,0.113-1.525,0.339-2.051
		c0.225-0.527,0.54-0.955,0.94-1.285c0.401-0.332,0.875-0.575,1.419-0.731c0.546-0.156,1.139-0.234,1.777-0.234
		C42.524,91.42,43.216,91.506,43.804,91.678L43.804,91.678z M43.273,78.987c-0.367,0.172-0.683,0.396-0.948,0.673
		c-0.264,0.276-0.494,0.59-0.688,0.941c-0.194,0.35-0.37,0.708-0.525,1.074c-0.157,0.367-0.312,0.725-0.463,1.075
		c-0.151,0.351-0.316,0.665-0.496,0.942c-0.18,0.277-0.389,0.5-0.631,0.672c-0.241,0.171-0.529,0.256-0.864,0.256
		c-0.227,0-0.439-0.047-0.638-0.14s-0.369-0.225-0.514-0.397c-0.145-0.171-0.257-0.381-0.339-0.632
		c-0.082-0.249-0.122-0.526-0.122-0.83c0-0.397,0.05-0.755,0.151-1.075c0.102-0.319,0.208-0.598,0.322-0.836
		c0.113-0.237,0.22-0.436,0.321-0.595c0.101-0.161,0.152-0.275,0.152-0.345c0-0.055-0.016-0.1-0.047-0.134
		c-0.031-0.036-0.08-0.066-0.146-0.094c-0.067-0.028-0.15-0.044-0.251-0.052c-0.101-0.008-0.227-0.013-0.374-0.013
		c-0.125,0-0.234,0.005-0.328,0.013c-0.093,0.008-0.172,0.021-0.24,0.04c-0.065,0.02-0.12,0.043-0.163,0.07
		c-0.042,0.028-0.093,0.068-0.151,0.123s-0.137,0.177-0.234,0.367c-0.098,0.192-0.189,0.418-0.275,0.678
		c-0.085,0.262-0.159,0.551-0.222,0.871c-0.062,0.32-0.095,0.642-0.095,0.969c0,0.561,0.081,1.084,0.24,1.567
		c0.16,0.483,0.384,0.904,0.672,1.262c0.288,0.359,0.637,0.639,1.046,0.842c0.409,0.202,0.864,0.303,1.361,0.303
		c0.506,0,0.949-0.082,1.327-0.245c0.378-0.163,0.701-0.383,0.971-0.66c0.268-0.276,0.502-0.591,0.701-0.94
		c0.198-0.351,0.379-0.707,0.542-1.07c0.165-0.362,0.318-0.718,0.462-1.069c0.144-0.35,0.308-0.662,0.491-0.936
		c0.183-0.272,0.394-0.492,0.631-0.659c0.237-0.168,0.516-0.252,0.836-0.252c0.295,0,0.559,0.061,0.789,0.182
		s0.424,0.288,0.584,0.502c0.158,0.215,0.282,0.47,0.367,0.766c0.086,0.296,0.129,0.619,0.129,0.969
		c0,0.468-0.056,0.891-0.169,1.269c-0.112,0.377-0.238,0.703-0.375,0.976c-0.136,0.272-0.26,0.497-0.374,0.672
		c-0.113,0.175-0.169,0.306-0.169,0.391c0,0.062,0.018,0.115,0.053,0.158c0.035,0.042,0.091,0.079,0.169,0.105
		c0.078,0.027,0.174,0.045,0.286,0.052c0.113,0.009,0.248,0.012,0.403,0.012c0.125,0,0.228-0.003,0.31-0.012
		c0.083-0.007,0.154-0.021,0.216-0.041c0.062-0.019,0.115-0.042,0.158-0.071c0.043-0.026,0.096-0.071,0.158-0.133
		c0.062-0.063,0.147-0.197,0.256-0.404c0.109-0.206,0.217-0.457,0.322-0.753c0.105-0.296,0.193-0.629,0.263-0.999
		c0.071-0.37,0.105-0.754,0.105-1.151c0-0.647-0.086-1.247-0.256-1.8c-0.171-0.552-0.412-1.028-0.719-1.425
		c-0.307-0.397-0.688-0.711-1.14-0.941c-0.451-0.229-0.965-0.344-1.542-0.344C44.071,78.73,43.638,78.816,43.273,78.987
		L43.273,78.987z"/>
	<path fill="#FFFFFF" d="M164.365,235.294c-0.121-0.501-0.322-1.074-0.602-1.72c-0.281-0.646-0.661-1.396-1.141-2.257
		c-0.48-0.859-1.044-1.827-1.684-2.9l-37.373-52.008l33.408-37.612c1.04-1.289,1.881-2.417,2.523-3.384
		c0.641-0.967,1.141-1.828,1.502-2.58c0.361-0.751,0.619-1.413,0.781-1.987c0.16-0.573,0.24-1.145,0.24-1.72
		c0-0.645-0.261-1.218-0.781-1.719c-0.521-0.501-1.404-0.896-2.644-1.183c-1.243-0.286-2.905-0.519-4.986-0.698
		c-2.086-0.179-4.729-0.268-7.933-0.268c-3.045,0-5.527,0.072-7.45,0.215c-1.923,0.144-3.506,0.358-4.746,0.644
		c-1.245,0.287-2.223,0.699-2.945,1.236c-0.722,0.537-1.363,1.235-1.922,2.095c0,0-32.958,43.15-35.571,46.635
		c-2.615,3.488,0,6.234,0,6.234l37.012,54.05c0.559,0.934,1.181,1.684,1.863,2.257c0.68,0.576,1.662,1.004,2.942,1.289
		c1.283,0.286,2.965,0.484,5.048,0.591c2.083,0.108,4.766,0.162,8.051,0.162c3.205,0,5.892-0.071,8.054-0.215
		c2.161-0.146,3.863-0.377,5.107-0.698c1.24-0.322,2.12-0.733,2.643-1.236c0.521-0.5,0.78-1.109,0.78-1.826
		C164.544,236.261,164.486,235.797,164.365,235.294L164.365,235.294z"/>
</g>
</svg>
